<svg xmlns="http://www.w3.org/2000/svg" version="1.1" xmlns:xlink="http://www.w3.org/1999/xlink" xmlns:svgjs="http://svgjs.com/svgjs" width="512" height="512" x="0" y="0" viewBox="0 0 682.667 682.667" style="enable-background:new 0 0 512 512" xml:space="preserve"><g><defs><clipPath id="a" clipPathUnits="userSpaceOnUse"><path d="M0 512h512V0H0Z" fill="#000000" data-original="#000000"></path></clipPath></defs><g clip-path="url(#a)" transform="matrix(1.33333 0 0 -1.33333 0 682.667)"><path d="M0 0c-6.471 6.471-16.962 6.471-23.433 0l-93.729-93.729c-6.47-6.471-6.47-16.962 0-23.433l370.133-370.132c6.471-6.471 16.962-6.471 23.432 0l93.729 93.729c6.471 6.471 6.471 16.961 0 23.432z" style="fill-opacity:1;fill-rule:nonzero;stroke:none" transform="translate(129.479 499.683)" fill="#FFDF40" data-original="#ffdf40"></path><path d="M0 0c6.471-6.471 6.471-16.962 0-23.432-6.47-6.471-16.961-6.471-23.432 0-6.471 6.47-6.471 16.961 0 23.432S-6.47 6.471 0 0" style="fill-opacity:1;fill-rule:nonzero;stroke:none" transform="translate(127.124 408.309)" fill="#FFBE40" data-original="#ffbe40"></path><path d="m0 0-370.132 370.133c-6.402 6.401-16.731 6.459-23.217.195.071-.068.147-.126.217-.195L-23 0c6.471-6.471 6.471-16.961 0-23.432l-93.729-93.729c-.069-.07-.146-.128-.216-.195 6.486-6.265 16.815-6.207 23.216.195L0-23.432C6.471-16.961 6.471-6.471 0 0" style="fill-opacity:1;fill-rule:nonzero;stroke:none" transform="translate(499.611 129.55)" fill="#FFBE40" data-original="#ffbe40"></path><path d="m0 0 254.439 254.439 112.227 15.963-18.498-109.692L93.729-93.729Z" style="fill-opacity:1;fill-rule:nonzero;stroke:none" transform="translate(36.713 130.44)" fill="#8DB5FF" data-original="#8db5ff"></path><path d="m0 0 254.439 254.439 4.748 28.156L-11.731 11.731Z" style="fill-opacity:1;fill-rule:nonzero;stroke:none" transform="translate(130.442 36.71)" fill="#7784FF" data-original="#7784ff"></path><path d="m0 0 35.149 35.149c12.941 12.941 12.941 33.923 0 46.864l-46.865 46.865c-12.941 12.941-33.923 12.941-46.864 0l-35.149-35.149 23.433-70.296Z" style="fill-opacity:1;fill-rule:nonzero;stroke:none" transform="translate(459.424 365.693)" fill="#F25A3C" data-original="#f25a3c"></path><path d="m0 0-46.865 46.865c-9.445 9.446-23.172 11.988-34.932 7.645a32.998 32.998 0 0 0 11.932-7.645L-23 0c12.941-12.941 12.941-33.923 0-46.864l-29.398-29.399 17.249-5.75L0-46.864C12.941-33.923 12.941-12.941 0 0" style="fill-opacity:1;fill-rule:nonzero;stroke:none" transform="translate(494.573 447.706)" fill="#E63A3A" data-original="#e63a3a"></path><path d="m0 0-61.116 35.148-51.111-51.111 93.729-93.729 51.112 51.111z" style="fill-opacity:1;fill-rule:nonzero;stroke:none" transform="translate(403.379 400.842)" fill="#CFD7E6" data-original="#cfd7e6"></path><path d="m0 0-54.449-54.438 11.706-11.706L8.369-15.032z" style="fill-opacity:1;fill-rule:nonzero;stroke:none" transform="translate(427.623 357.293)" fill="#B4C2DB" data-original="#b4c2db"></path><path d="M0 0c-6.471 6.471-16.962 6.471-23.433 0-6.47-6.471-6.47-16.962 0-23.432l93.73-93.73c6.471-6.47 16.961-6.47 23.432 0 6.471 6.471 6.471 16.962 0 23.433z" style="fill-opacity:1;fill-rule:nonzero;stroke:none" transform="translate(365.696 459.422)" fill="#F3F5F9" data-original="#f3f5f9"></path><path d="m0 0-93.729 93.729c-6.401 6.401-16.731 6.459-23.216.195.07-.068.146-.126.216-.195L-23 0c6.471-6.471 6.471-16.962 0-23.433-.069-.069-.146-.127-.216-.195 6.486-6.264 16.815-6.205 23.216.195C6.471-16.962 6.471-6.471 0 0" style="fill-opacity:1;fill-rule:nonzero;stroke:none" transform="translate(459.425 365.693)" fill="#CFD7E6" data-original="#cfd7e6"></path><path d="m0 0 60.379 6.708a8.291 8.291 0 0 1 4.943 2.376L43.071 75.346a8.286 8.286 0 0 1-5.217 5.216l-66.261 22.251a8.279 8.279 0 0 1-2.375-4.943l-6.709-60.379 8.121-28.407Z" style="fill-opacity:1;fill-rule:nonzero;stroke:none" transform="translate(65.12 27.626)" fill="#FFD9B3" data-original="#ffd9b3"></path><path d="m0 0-43.115-4.791 6.201-1.917L23.465 0a8.285 8.285 0 0 1 4.943 2.376L22.51 19.94 4.943 2.376A8.285 8.285 0 0 0 0 0" style="fill-opacity:1;fill-rule:nonzero;stroke:none" transform="translate(102.034 34.334)" fill="#FFBB99" data-original="#ffbb99"></path><path d="m0 0-3.543-31.886c-.586-5.277 3.873-9.735 9.149-9.149l31.886 3.543z" style="fill-opacity:1;fill-rule:nonzero;stroke:none" transform="translate(27.628 65.118)" fill="#595353" data-original="#595353"></path><path d="m0 0 31.886 3.543-2.347 2.346-35.795-3.977A8.222 8.222 0 0 1 0 0" style="fill-opacity:1;fill-rule:nonzero;stroke:none" transform="translate(33.234 24.083)" fill="#403939" data-original="#403939"></path><path d="m0 0 253.941 253.941" style="stroke-linecap: round; stroke-linejoin: round; stroke-miterlimit: 10; stroke-dasharray: none; stroke-opacity: 1;" transform="translate(88.322 182.049)" fill="none" stroke="#000000" stroke-width="15px" stroke-linecap="round" stroke-linejoin="round" stroke-miterlimit="10" stroke-dasharray="none" stroke-opacity="" data-original="#000000"></path><path d="m0 0-305.551-305.55a8.285 8.285 0 0 0-4.943-2.376l-92.264-10.252c-5.277-.586-9.736 3.872-9.149 9.149l10.252 92.265a8.281 8.281 0 0 0 2.375 4.943l30.396 30.396" style="stroke-linecap: round; stroke-linejoin: round; stroke-miterlimit: 10; stroke-dasharray: none; stroke-opacity: 1;" transform="translate(435.993 342.26)" fill="none" stroke="#000000" stroke-width="15px" stroke-linecap="round" stroke-linejoin="round" stroke-miterlimit="10" stroke-dasharray="none" stroke-opacity="" data-original="#000000"></path><path d="m0 0 35.149 35.149c12.941 12.941 33.923 12.941 46.864 0l46.865-46.865c12.941-12.941 12.941-33.923 0-46.864L93.729-93.729" style="stroke-linecap: round; stroke-linejoin: round; stroke-miterlimit: 10; stroke-dasharray: none; stroke-opacity: 1;" transform="translate(365.695 459.422)" fill="none" stroke="#000000" stroke-width="15px" stroke-linecap="round" stroke-linejoin="round" stroke-miterlimit="10" stroke-dasharray="none" stroke-opacity="" data-original="#000000"></path><path d="M0 0c-6.471 6.471-16.962 6.471-23.433 0-6.47-6.471-6.47-16.962 0-23.432l93.73-93.73c6.471-6.47 16.961-6.47 23.432 0 6.471 6.471 6.471 16.962 0 23.433z" style="stroke-linecap: round; stroke-linejoin: round; stroke-miterlimit: 10; stroke-dasharray: none; stroke-opacity: 1;" transform="translate(365.696 459.422)" fill="none" stroke="#000000" stroke-width="15px" stroke-linecap="round" stroke-linejoin="round" stroke-miterlimit="10" stroke-dasharray="none" stroke-opacity="" data-original="#000000"></path><path d="m0 0 93.729-93.729" style="stroke-linecap: round; stroke-linejoin: round; stroke-miterlimit: 10; stroke-dasharray: none; stroke-opacity: 1;" transform="translate(291.152 384.878)" fill="none" stroke="#000000" stroke-width="15px" stroke-linecap="round" stroke-linejoin="round" stroke-miterlimit="10" stroke-dasharray="none" stroke-opacity="" data-original="#000000"></path><path d="m0 0-51.107-51.107" style="stroke-linecap: round; stroke-linejoin: round; stroke-miterlimit: 10; stroke-dasharray: none; stroke-opacity: 1;" transform="translate(365.696 412.558)" fill="none" stroke="#000000" stroke-width="15px" stroke-linecap="round" stroke-linejoin="round" stroke-miterlimit="10" stroke-dasharray="none" stroke-opacity="" data-original="#000000"></path><path d="m0 0-58.581-58.581" style="stroke-linecap: round; stroke-linejoin: round; stroke-miterlimit: 10; stroke-dasharray: none; stroke-opacity: 1;" transform="translate(389.128 389.125)" fill="none" stroke="#000000" stroke-width="15px" stroke-linecap="round" stroke-linejoin="round" stroke-miterlimit="10" stroke-dasharray="none" stroke-opacity="" data-original="#000000"></path><path d="m0 0-51.111-51.112" style="stroke-linecap: round; stroke-linejoin: round; stroke-miterlimit: 10; stroke-dasharray: none; stroke-opacity: 1;" transform="translate(412.56 365.693)" fill="none" stroke="#000000" stroke-width="15px" stroke-linecap="round" stroke-linejoin="round" stroke-miterlimit="10" stroke-dasharray="none" stroke-opacity="" data-original="#000000"></path><path d="m0 0 66.261-22.251a8.29 8.29 0 0 0 5.217-5.217l22.251-66.261" style="stroke-linecap: round; stroke-linejoin: round; stroke-miterlimit: 10; stroke-dasharray: none; stroke-opacity: 1;" transform="translate(36.713 130.44)" fill="none" stroke="#000000" stroke-width="15px" stroke-linecap="round" stroke-linejoin="round" stroke-miterlimit="10" stroke-dasharray="none" stroke-opacity="" data-original="#000000"></path><path d="m0 0-3.543-31.886c-.586-5.277 3.873-9.735 9.149-9.149l31.886 3.543z" style="stroke-linecap: round; stroke-linejoin: round; stroke-miterlimit: 10; stroke-dasharray: none; stroke-opacity: 1;" transform="translate(27.628 65.118)" fill="none" stroke="#000000" stroke-width="15px" stroke-linecap="round" stroke-linejoin="round" stroke-miterlimit="10" stroke-dasharray="none" stroke-opacity="" data-original="#000000"></path><path d="m0 0-231.821-231.821" style="stroke-linecap: round; stroke-linejoin: round; stroke-miterlimit: 10; stroke-dasharray: none; stroke-opacity: 1;" transform="translate(338.016 338.014)" fill="none" stroke="#000000" stroke-width="15px" stroke-linecap="round" stroke-linejoin="round" stroke-miterlimit="10" stroke-dasharray="none" stroke-opacity="" data-original="#000000"></path><path d="m0 0-28.298 28.298" style="stroke-linecap: round; stroke-linejoin: round; stroke-miterlimit: 10; stroke-dasharray: none; stroke-opacity: 1;" transform="translate(272.584 122.255)" fill="none" stroke="#000000" stroke-width="15px" stroke-linecap="round" stroke-linejoin="round" stroke-miterlimit="10" stroke-dasharray="none" stroke-opacity="" data-original="#000000"></path><path d="m0 0 137.816-137.816c6.471-6.471 6.471-16.962 0-23.433l-93.729-93.729c-6.471-6.47-16.962-6.47-23.432 0l-88.651 88.651" style="stroke-linecap: round; stroke-linejoin: round; stroke-miterlimit: 10; stroke-dasharray: none; stroke-opacity: 1;" transform="translate(361.795 267.366)" fill="none" stroke="#000000" stroke-width="15px" stroke-linecap="round" stroke-linejoin="round" stroke-miterlimit="10" stroke-dasharray="none" stroke-opacity="" data-original="#000000"></path><path d="m0 0-134.809 134.809c-6.471 6.47-6.471 16.962 0 23.432l93.729 93.729c6.471 6.471 16.962 6.471 23.433 0l134.633-134.634" style="stroke-linecap: round; stroke-linejoin: round; stroke-miterlimit: 10; stroke-dasharray: none; stroke-opacity: 1;" transform="translate(147.126 247.712)" fill="none" stroke="#000000" stroke-width="15px" stroke-linecap="round" stroke-linejoin="round" stroke-miterlimit="10" stroke-dasharray="none" stroke-opacity="" data-original="#000000"></path><path d="m0 0 11.716 11.716" style="stroke-linecap: round; stroke-linejoin: round; stroke-miterlimit: 10; stroke-dasharray: none; stroke-opacity: 1;" transform="translate(162.272 443.457)" fill="none" stroke="#000000" stroke-width="15px" stroke-linecap="round" stroke-linejoin="round" stroke-miterlimit="10" stroke-dasharray="none" stroke-opacity="" data-original="#000000"></path><path d="m0 0 11.716 11.716" style="stroke-linecap: round; stroke-linejoin: round; stroke-miterlimit: 10; stroke-dasharray: none; stroke-opacity: 1;" transform="translate(197.42 408.309)" fill="none" stroke="#000000" stroke-width="15px" stroke-linecap="round" stroke-linejoin="round" stroke-miterlimit="10" stroke-dasharray="none" stroke-opacity="" data-original="#000000"></path><path d="m0 0 11.716 11.716" style="stroke-linecap: round; stroke-linejoin: round; stroke-miterlimit: 10; stroke-dasharray: none; stroke-opacity: 1;" transform="translate(232.569 373.16)" fill="none" stroke="#000000" stroke-width="15px" stroke-linecap="round" stroke-linejoin="round" stroke-miterlimit="10" stroke-dasharray="none" stroke-opacity="" data-original="#000000"></path><path d="m0 0 11.716 11.716" style="stroke-linecap: round; stroke-linejoin: round; stroke-miterlimit: 10; stroke-dasharray: none; stroke-opacity: 1;" transform="translate(373.163 232.566)" fill="none" stroke="#000000" stroke-width="15px" stroke-linecap="round" stroke-linejoin="round" stroke-miterlimit="10" stroke-dasharray="none" stroke-opacity="" data-original="#000000"></path><path d="M0 0c6.471-6.471 6.471-16.962 0-23.432-6.47-6.471-16.961-6.471-23.432 0-6.471 6.47-6.471 16.961 0 23.432S-6.47 6.471 0 0Z" style="stroke-linecap: round; stroke-linejoin: round; stroke-miterlimit: 10; stroke-dasharray: none; stroke-opacity: 1;" transform="translate(127.124 408.309)" fill="none" stroke="#000000" stroke-width="15px" stroke-linecap="round" stroke-linejoin="round" stroke-miterlimit="10" stroke-dasharray="none" stroke-opacity="" data-original="#000000"></path><path d="m0 0 93.729-93.729" style="stroke-linecap: round; stroke-linejoin: round; stroke-miterlimit: 10; stroke-dasharray: none; stroke-opacity: 1;" transform="translate(267.718 173.985)" fill="none" stroke="#000000" stroke-width="15px" stroke-linecap="round" stroke-linejoin="round" stroke-miterlimit="10" stroke-dasharray="none" stroke-opacity="" data-original="#000000"></path><path d="m0 0 93.729-93.729" style="stroke-linecap: round; stroke-linejoin: round; stroke-miterlimit: 10; stroke-dasharray: none; stroke-opacity: 1;" transform="translate(80.26 361.444)" fill="none" stroke="#000000" stroke-width="15px" stroke-linecap="round" stroke-linejoin="round" stroke-miterlimit="10" stroke-dasharray="none" stroke-opacity="" data-original="#000000"></path><path d="m0 0 11.716 11.716" style="stroke-linecap: round; stroke-linejoin: round; stroke-miterlimit: 10; stroke-dasharray: none; stroke-opacity: 1;" transform="translate(408.311 197.418)" fill="none" stroke="#000000" stroke-width="15px" stroke-linecap="round" stroke-linejoin="round" stroke-miterlimit="10" stroke-dasharray="none" stroke-opacity="" data-original="#000000"></path><path d="m0 0 11.716 11.716" style="stroke-linecap: round; stroke-linejoin: round; stroke-miterlimit: 10; stroke-dasharray: none; stroke-opacity: 1;" transform="translate(443.46 162.27)" fill="none" stroke="#000000" stroke-width="15px" stroke-linecap="round" stroke-linejoin="round" stroke-miterlimit="10" stroke-dasharray="none" stroke-opacity="" data-original="#000000"></path></g></g></svg>