<svg xmlns="http://www.w3.org/2000/svg" version="1.1" xmlns:xlink="http://www.w3.org/1999/xlink" xmlns:svgjs="http://svgjs.com/svgjs" width="512" height="512" x="0" y="0" viewBox="0 0 64 64" style="enable-background:new 0 0 512 512" xml:space="preserve" class=""><g><path d="M60 35.14h-1V4.77c0-1.15-.22-2.19-1.65-2.27-2.62-.16-5.31 0-7.94 0H7.49C6.36 2.5 5.11 2.47 5 4c-.1 1 0 1.94 0 2.89v28.25c-1 0-2.2 0-2.46 1.23a11.11 11.11 0 0 0 0 2.08c0 1.45-.58 4.32 1.52 4.49 3.21.26 6.54 0 9.75 0h3.95L10 56.23c-.7 1.22-3.58 5-.42 5.27 1.28.1 2.62 0 3.9 0s2.28.22 3-.88c1.49-2.29 2.75-4.76 4.11-7.12h22.79l3.81 6.61a2.27 2.27 0 0 0 2.2 1.39h4.49c1.36 0 2.49-.88 1.76-2.35-.35-.71-.8-1.39-1.19-2.07l-4.74-8.2-3.43-5.94H59.54a2.08 2.08 0 0 0 1.46-.35c.63-.53.53-1.32.53-2.06-.03-1.35.68-5.39-1.53-5.39zM8 5.5h48v29.64h-2.5v-1.86a4.25 4.25 0 0 0-.2-2c-.61-1-2.23-.74-3.24-.74h-5.12a10.07 10.07 0 0 0-3.15.09c-1.52.57-1 3.3-1 4.55H8zm42.5 29.64h-6.69V33.5h6.69zM14.27 58.5H12.2l9-15.56h2.08zm8.09-8 4.36-7.56h10.56l4.36 7.56zm29.44 8h-2.07l-9-15.56h2.08zm6.7-18.56h-53v-1.8h53z" fill="#FFFFFF" data-original="#000000" class=""></path><path d="M26.09 8c-1.1.14-1.27 1.17-1.5 2l-.95 3.56L21.15 23c-.27 1-.54 2-.8 3-.31 1.23.42 2.83 1.93 2.18.89-.39 1-1.5 1.21-2.33l1.12-4.23 2.08-7.85a29 29 0 0 1 1.67 6c-1.2.14-3.45.12-3.07 2 .34 1.65 2.24 1.13 3.42 1 0 .69.06 1.38.06 2.06a6.3 6.3 0 0 0 0 1.84 1.51 1.51 0 0 0 2.23.81c.95-.59.75-2 .74-2.93a31.13 31.13 0 0 0-.24-3.86 32.72 32.72 0 0 0-1.74-7.18 30.2 30.2 0 0 0-1.54-3.55C27.8 9 27.32 7.79 26.09 8zM40.93 26.69a1.52 1.52 0 0 0 2.72.09 1.9 1.9 0 0 0-.1-1.61 12.75 12.75 0 0 1-.64-2.5c.27-1.26.47-4.05-1.35-4.26-3.21-2.65-7.24.54-7.46 4.08-.11 1.65.32 3.69 1.79 4.66s3.6.42 4.92-.76zm-2.26-2.42c-1.45 1.16-1.72-.69-1.55-1.83.18-1.29 1.45-2.63 2.7-1.56a14.08 14.08 0 0 0 0 1.59 3.78 3.78 0 0 1-1.15 1.8z" fill="#FFFFFF" data-original="#000000" class=""></path></g></svg>