<svg width="365" height="363" viewBox="0 0 365 363" fill="none" xmlns="http://www.w3.org/2000/svg">
<path d="M320.24 159.576C319.63 159.575 319.035 159.393 318.529 159.053C318.024 158.713 317.63 158.231 317.399 157.667C317.167 157.103 317.108 156.483 317.229 155.886C317.35 155.289 317.646 154.741 318.079 154.312L323.004 149.461L319.31 151.603C318.669 151.969 317.919 152.093 317.194 151.952C316.47 151.811 315.821 151.415 315.364 150.835C314.908 150.256 314.674 149.532 314.707 148.794C314.74 148.057 315.036 147.357 315.542 146.82L325.245 136.6L319.31 140.023C318.664 140.378 317.912 140.489 317.191 140.337C316.47 140.184 315.828 139.778 315.381 139.193C314.933 138.607 314.711 137.88 314.754 137.144C314.798 136.409 315.103 135.713 315.616 135.184L323.435 127.359L319.328 129.723C318.692 130.084 317.948 130.208 317.229 130.07C316.511 129.933 315.864 129.544 315.406 128.973C314.948 128.403 314.708 127.688 314.73 126.956C314.751 126.225 315.033 125.525 315.524 124.982L326.261 113.284L319.328 117.28C318.683 117.635 317.931 117.746 317.21 117.594C316.489 117.442 315.846 117.036 315.399 116.45C314.952 115.864 314.73 115.138 314.773 114.402C314.816 113.666 315.122 112.97 315.634 112.441L323.349 104.733L319.347 107.036C318.643 107.404 317.825 107.485 317.062 107.264C316.3 107.043 315.652 106.536 315.255 105.848C314.858 105.161 314.741 104.347 314.93 103.576C315.119 102.804 315.598 102.136 316.269 101.71L340.532 87.6976C341.178 87.3427 341.929 87.2313 342.65 87.3836C343.371 87.5359 344.014 87.9418 344.461 88.5276C344.908 89.1134 345.13 89.8401 345.087 90.5758C345.044 91.3115 344.738 92.0072 344.226 92.5367L336.444 100.226L340.47 97.9052C341.107 97.5395 341.854 97.4134 342.575 97.5499C343.297 97.6863 343.946 98.0763 344.405 98.6493C344.865 99.2224 345.104 99.9407 345.08 100.675C345.056 101.409 344.771 102.11 344.275 102.652L333.538 114.35L340.501 110.323C341.147 109.968 341.899 109.857 342.62 110.009C343.341 110.161 343.983 110.567 344.43 111.153C344.877 111.739 345.1 112.466 345.056 113.201C345.013 113.937 344.708 114.633 344.195 115.162L336.388 122.975L340.507 120.599C341.148 120.228 341.9 120.101 342.627 120.24C343.354 120.379 344.006 120.776 344.465 121.357C344.923 121.938 345.157 122.664 345.123 123.404C345.089 124.143 344.791 124.845 344.281 125.382L334.591 135.627L340.563 132.185C341.21 131.821 341.967 131.703 342.695 131.854C343.422 132.004 344.071 132.413 344.521 133.004C344.971 133.595 345.192 134.328 345.143 135.07C345.095 135.811 344.78 136.509 344.257 137.037L339.368 141.876L340.599 141.18C341.131 140.872 341.743 140.73 342.357 140.772C342.97 140.815 343.557 141.04 344.041 141.419C344.525 141.798 344.885 142.313 345.073 142.898C345.262 143.483 345.271 144.111 345.1 144.702L343.173 151.32C343.73 151.513 344.22 151.862 344.584 152.326C344.949 152.789 345.173 153.347 345.229 153.934C345.285 154.521 345.172 155.112 344.903 155.636C344.633 156.16 344.219 156.596 343.709 156.892L340.052 159.004C339.52 159.31 338.909 159.45 338.296 159.407C337.684 159.363 337.099 159.138 336.616 158.759C336.133 158.381 335.774 157.867 335.585 157.283C335.397 156.699 335.387 156.072 335.557 155.482L337.041 150.341L321.779 159.145C321.314 159.425 320.782 159.574 320.24 159.576Z" fill="#CC953E"/>
<path d="M102.389 122.156C101.723 122.156 101.075 121.941 100.542 121.542C100.01 121.143 99.6204 120.582 99.4331 119.943C99.2459 119.305 99.2707 118.622 99.5039 117.999C99.7371 117.376 100.166 116.844 100.726 116.485L129.25 98.231L88.5117 121.737C87.8204 122.119 87.0089 122.22 86.245 122.02C85.481 121.82 84.8231 121.335 84.4072 120.663C83.9913 119.992 83.8493 119.187 84.0105 118.414C84.1717 117.641 84.6238 116.959 85.2734 116.51L144.229 77.631L72.5538 119.01C71.8588 119.386 71.0455 119.481 70.2824 119.274C69.5194 119.068 68.8651 118.576 68.4551 117.9C68.0451 117.224 67.9109 116.416 68.0802 115.644C68.2496 114.872 68.7095 114.194 69.3647 113.752L97.8636 95.6576L63.8114 115.322C63.1183 115.724 62.2959 115.839 61.5189 115.645C60.7418 115.45 60.0713 114.96 59.6497 114.279C59.2281 113.597 59.0888 112.779 59.2612 111.996C59.4336 111.214 59.9042 110.53 60.573 110.089L125.987 66.7399L51.1164 109.959C50.4251 110.341 49.6136 110.442 48.8497 110.243C48.0857 110.043 47.4278 109.557 47.0119 108.886C46.596 108.214 46.454 107.409 46.6152 106.636C46.7764 105.863 47.2285 105.181 47.8781 104.732L110.873 63.1568L38.7971 104.782C38.099 105.205 37.2613 105.334 36.468 105.141C35.6748 104.947 34.9912 104.445 34.5675 103.747C34.1437 103.049 34.0147 102.212 34.2086 101.418C34.4026 100.625 34.9037 99.9415 35.6018 99.5178L71.0023 76.923L29.5314 100.854C29.1849 101.062 28.8008 101.201 28.4009 101.261C28.001 101.321 27.5932 101.302 27.2007 101.204C26.8082 101.107 26.4388 100.933 26.1135 100.693C25.7882 100.452 25.5134 100.15 25.3048 99.8041C25.0962 99.4576 24.9579 99.0735 24.8978 98.6736C24.8377 98.2737 24.8569 97.8659 24.9543 97.4734C25.0518 97.0809 25.2256 96.7115 25.4659 96.3862C25.7061 96.0609 26.0081 95.7861 26.3545 95.5775L30.892 92.7455L22.1927 97.7631C21.4991 98.1574 20.6796 98.267 19.9068 98.0689C19.134 97.8708 18.4683 97.3804 18.0501 96.7011C17.6318 96.0217 17.4935 95.2066 17.6645 94.4273C17.8355 93.6481 18.3023 92.9656 18.9666 92.5239L36.5991 80.9248L13.6657 94.1615C12.977 94.5806 12.1514 94.7127 11.3663 94.5296C10.5812 94.3464 9.89925 93.8626 9.46706 93.182C9.03486 92.5015 8.88689 91.6785 9.05494 90.8901C9.223 90.1016 9.69367 89.4105 10.3658 88.9653L14.3861 86.1887L7.10895 90.3875C6.48421 90.7487 5.75242 90.879 5.04141 90.7555C4.3304 90.632 3.68536 90.2627 3.21899 89.712C2.75261 89.1613 2.49454 88.4642 2.48985 87.7426C2.48516 87.021 2.73416 86.3206 3.19335 85.7639L6.55486 81.6944L5.96998 82.0268C5.61961 82.2496 5.22781 82.3991 4.81815 82.4665C4.40849 82.5339 3.98943 82.5177 3.58618 82.4189C3.18293 82.3201 2.80383 82.1408 2.47168 81.8917C2.13954 81.6426 1.86121 81.329 1.65344 80.9695C1.44567 80.6101 1.31276 80.2123 1.2627 79.8002C1.21263 79.388 1.24646 78.97 1.36213 78.5713C1.47781 78.1726 1.67294 77.8014 1.9358 77.48C2.19865 77.1587 2.5238 76.8938 2.89167 76.7013L18.2401 67.842C18.8648 67.4844 19.595 67.3571 20.3038 67.4821C21.0126 67.607 21.6552 67.9764 22.1199 68.526C22.5847 69.0757 22.8421 69.7707 22.8475 70.4905C22.8529 71.2102 22.606 71.9091 22.1496 72.4656L18.7942 76.5351L76.1985 43.4064C76.8867 43.0059 77.7032 42.8877 78.4767 43.0765C79.2502 43.2653 79.9205 43.7464 80.3467 44.4189C80.773 45.0914 80.9221 45.9029 80.7628 46.683C80.6035 47.4631 80.1481 48.1511 79.4923 48.6026L75.472 51.3853L124.756 22.9356C125.448 22.5592 126.257 22.4622 127.018 22.6647C127.78 22.8672 128.434 23.3537 128.847 24.0241C129.261 24.6946 129.401 25.4979 129.24 26.2689C129.079 27.0399 128.629 27.7198 127.982 28.1687L110.362 39.7555L178.583 0.371623C179.28 -0.00578104 180.095 -0.100003 180.86 0.108563C181.624 0.317129 182.279 0.81242 182.687 1.49137C183.095 2.17031 183.226 2.98062 183.053 3.75367C182.879 4.52672 182.414 5.20297 181.754 5.64169L177.167 8.4922L187.695 2.42178C188.391 2.03289 189.21 1.92901 189.981 2.13199C190.752 2.33497 191.413 2.82899 191.827 3.5101C192.241 4.19122 192.375 5.00633 192.2 5.78396C192.025 6.56158 191.556 7.24109 190.89 7.67953L155.539 30.2866L196.991 6.32507C197.684 5.93779 198.499 5.83279 199.267 6.03195C200.035 6.23112 200.696 6.71908 201.113 7.39405C201.53 8.06902 201.67 8.87889 201.504 9.65473C201.339 10.4306 200.88 11.1125 200.224 11.5582L137.211 53.1461L209.317 11.5213C210.01 11.1194 210.832 11.0036 211.609 11.1984C212.386 11.3932 213.057 11.8832 213.479 12.5645C213.9 13.2457 214.039 14.0644 213.867 14.8468C213.695 15.6291 213.224 16.3134 212.555 16.7544L147.141 60.1031L222.012 16.8775C222.707 16.5058 223.519 16.4152 224.279 16.6244C225.04 16.8336 225.691 17.3266 226.098 18.0018C226.506 18.677 226.639 19.4829 226.469 20.2531C226.3 21.0234 225.842 21.6993 225.189 22.1414L196.739 40.2049L230.76 20.5653C231.453 20.1635 232.276 20.0477 233.053 20.2425C233.83 20.4372 234.5 20.9273 234.922 21.6085C235.344 22.2898 235.483 23.1085 235.311 23.8908C235.138 24.6732 234.668 25.3575 233.999 25.7984L175.037 64.6836L242.729 25.6076C243.425 25.2187 244.244 25.1148 245.015 25.3178C245.785 25.5208 246.447 26.0148 246.861 26.6959C247.275 27.377 247.409 28.1921 247.234 28.9698C247.059 29.7474 246.59 30.4269 245.924 30.8653L217.456 49.0889L251.625 29.3878C252.312 29.0093 253.118 28.9074 253.878 29.1031C254.638 29.2987 255.294 29.7771 255.713 30.4404C256.132 31.1038 256.282 31.9021 256.132 32.6722C255.982 33.4423 255.544 34.1261 254.907 34.5839L193.408 76.7629L265.404 35.175C266.093 34.7747 266.912 34.6577 267.686 34.8486C268.46 35.0396 269.13 35.5236 269.555 36.1987C269.979 36.8738 270.125 37.6873 269.962 38.4679C269.798 39.2485 269.339 39.9352 268.679 40.3835L217.351 75.3961L277.895 40.4389C278.589 40.0446 279.408 39.935 280.181 40.1331C280.954 40.3312 281.62 40.8216 282.038 41.5009C282.456 42.1803 282.595 42.9955 282.424 43.7747C282.253 44.5539 281.786 45.2364 281.121 45.6782L254.032 63.4831L287.161 44.3545C287.856 43.9386 288.686 43.813 289.472 44.0048C290.258 44.1966 290.938 44.6903 291.363 45.3792C291.788 46.068 291.924 46.8965 291.743 47.6853C291.561 48.4741 291.077 49.1598 290.393 49.5938L270.347 62.7505L295.86 48.0238C296.544 47.6318 297.351 47.5165 298.117 47.7018C298.882 47.887 299.548 48.3587 299.976 49.0198C300.404 49.6808 300.563 50.4809 300.419 51.2553C300.276 52.0298 299.84 52.7197 299.203 53.1831L253.029 86.6566L309.793 53.8849C310.481 53.4845 311.298 53.3662 312.071 53.555C312.845 53.7438 313.515 54.225 313.941 54.8975C314.367 55.5699 314.516 56.3814 314.357 57.1615C314.198 57.9416 313.742 58.6296 313.087 59.0811L284.354 78.9793L320.216 58.2808C320.896 57.8994 321.696 57.7906 322.454 57.9764C323.212 58.1621 323.87 58.6286 324.297 59.2814C324.724 59.9343 324.887 60.7249 324.754 61.4934C324.62 62.2619 324.2 62.9511 323.578 63.4215L288.75 89.1623L332.929 63.6493C333.621 63.2486 334.441 63.1325 335.216 63.3254C335.992 63.5184 336.662 64.0054 337.085 64.6834C337.508 65.3614 337.65 66.1773 337.483 66.9586C337.315 67.7399 336.85 68.4254 336.186 68.8701L332.264 71.5052L340.41 66.8077C341.084 66.4318 341.875 66.323 342.626 66.5029C343.377 66.6828 344.032 67.1382 344.463 67.779C344.894 68.4197 345.068 69.1988 344.951 69.962C344.835 70.7251 344.435 71.4166 343.833 71.8992L315.383 94.0322L353.246 72.2009C353.921 71.8179 354.715 71.7037 355.47 71.8812C356.226 72.0587 356.886 72.5148 357.319 73.1582C357.753 73.8016 357.927 74.585 357.808 75.3515C357.688 76.118 357.284 76.8112 356.675 77.2924L348.321 83.7568L358.584 77.8342C358.934 77.6114 359.326 77.4619 359.736 77.3945C360.146 77.3271 360.565 77.3433 360.968 77.4421C361.371 77.5408 361.75 77.7202 362.082 77.9693C362.414 78.2183 362.693 78.532 362.901 78.8915C363.108 79.2509 363.241 79.6487 363.291 80.0608C363.341 80.4729 363.308 80.891 363.192 81.2897C363.076 81.6884 362.881 82.0596 362.618 82.381C362.355 82.7023 362.03 82.9672 361.662 83.1596L312.748 111.4C312.073 111.783 311.279 111.897 310.524 111.72C309.769 111.542 309.108 111.086 308.675 110.443C308.242 109.799 308.067 109.016 308.187 108.249C308.306 107.483 308.71 106.79 309.319 106.309L317.624 99.8441L279.705 121.731C279.03 122.116 278.234 122.232 277.477 122.054C276.719 121.877 276.058 121.419 275.624 120.773C275.19 120.128 275.017 119.342 275.14 118.574C275.262 117.806 275.67 117.112 276.282 116.633L304.738 94.5063L257.579 121.731C256.886 122.164 256.05 122.303 255.255 122.12C254.459 121.936 253.769 121.444 253.337 120.752C252.904 120.06 252.764 119.224 252.948 118.428C253.131 117.633 253.623 116.943 254.316 116.51L258.207 113.893L244.644 121.737C243.963 122.127 243.159 122.242 242.396 122.059C241.633 121.876 240.968 121.409 240.538 120.753C240.109 120.096 239.945 119.301 240.082 118.528C240.22 117.756 240.646 117.065 241.276 116.596L276.104 90.8554L222.615 121.737C221.927 122.137 221.11 122.256 220.337 122.067C219.563 121.878 218.893 121.397 218.467 120.724C218.041 120.052 217.892 119.241 218.051 118.46C218.21 117.68 218.666 116.992 219.321 116.541L248.067 96.6242L204.576 121.737C203.893 122.129 203.086 122.244 202.32 122.059C201.554 121.874 200.889 121.402 200.461 120.741C200.032 120.08 199.874 119.28 200.017 118.505C200.161 117.731 200.596 117.041 201.233 116.578L247.451 83.0858L180.51 121.737C179.817 122.131 178.997 122.241 178.224 122.043C177.451 121.845 176.786 121.354 176.367 120.675C175.949 119.996 175.811 119.18 175.982 118.401C176.153 117.622 176.62 116.94 177.284 116.498L197.281 103.366L165.469 121.737C164.777 122.124 163.962 122.229 163.194 122.03C162.426 121.831 161.765 121.343 161.348 120.668C160.931 119.993 160.791 119.183 160.956 118.407C161.122 117.632 161.581 116.95 162.237 116.504L189.326 98.6866L149.395 121.737C148.706 122.12 147.898 122.224 147.135 122.029C146.372 121.833 145.713 121.353 145.293 120.687C144.874 120.02 144.726 119.219 144.879 118.446C145.033 117.674 145.477 116.99 146.119 116.535L197.453 81.522L127.779 121.737C127.091 122.116 126.286 122.217 125.526 122.022C124.766 121.826 124.11 121.348 123.691 120.684C123.272 120.021 123.122 119.223 123.272 118.453C123.422 117.682 123.86 116.999 124.497 116.541L185.996 74.3557L103.928 121.762C103.458 122.025 102.927 122.161 102.389 122.156Z" fill="#35476D"/>
<path d="M91.9893 193.613C91.3301 193.612 90.6886 193.399 90.1594 193.006C89.6301 192.613 89.241 192.06 89.0494 191.43C88.8578 190.799 88.8737 190.123 89.0948 189.502C89.316 188.881 89.7306 188.347 90.2778 187.98L165.863 137.268L79.1528 187.327C78.4549 187.712 77.6351 187.81 76.8658 187.603C76.0965 187.395 75.4377 186.897 75.0278 186.214C74.618 185.531 74.4891 184.715 74.6682 183.939C74.8473 183.162 75.3205 182.486 75.9883 182.051L84.3551 176.818L79.1528 179.816C78.4578 180.193 77.6445 180.288 76.8814 180.081C76.1184 179.874 75.4641 179.382 75.0541 178.706C74.6441 178.03 74.5099 177.222 74.6792 176.45C74.8486 175.678 75.3085 175.001 75.9637 174.558L97.8197 160.681L79.1528 171.449C78.4651 171.837 77.6545 171.947 76.8886 171.754C76.1227 171.561 75.4602 171.082 75.0379 170.415C74.6157 169.747 74.4661 168.943 74.62 168.169C74.774 167.394 75.2198 166.708 75.8652 166.253L136.982 124.037L79.1528 157.418C78.4656 157.797 77.6598 157.899 76.9 157.703C76.1402 157.507 75.4839 157.029 75.0649 156.366C74.646 155.702 74.4962 154.904 74.6461 154.134C74.7959 153.364 75.2342 152.68 75.8713 152.222L115.378 125.133L79.1528 146.035C78.4666 146.424 77.6572 146.535 76.8916 146.345C76.126 146.155 75.4626 145.678 75.0384 145.013C74.6142 144.347 74.4615 143.545 74.6119 142.77C74.7624 141.996 75.2044 141.309 75.8467 140.851L104.783 120.497L79.1466 135.273C78.4693 135.651 77.6742 135.759 76.9204 135.576C76.1666 135.393 75.5096 134.932 75.0809 134.286C74.6523 133.639 74.4835 132.855 74.6084 132.089C74.7332 131.324 75.1425 130.634 75.7543 130.157L98.8848 112.598L79.1528 124.025C78.5221 124.387 77.7834 124.515 77.0676 124.385C76.3518 124.255 75.7053 123.875 75.2427 123.314C74.7801 122.752 74.5313 122.045 74.5404 121.317C74.5495 120.59 74.816 119.889 75.2926 119.34L86.3745 106.638L81.9664 109.181C81.2629 109.549 80.4443 109.631 79.6818 109.41C78.9193 109.189 78.2717 108.681 77.8744 107.994C77.4771 107.307 77.3607 106.492 77.5496 105.721C77.7385 104.95 78.218 104.282 78.8881 103.856L99.2603 92.0966C99.891 91.734 100.63 91.6064 101.346 91.7366C102.061 91.8668 102.708 92.2463 103.17 92.8078C103.633 93.3693 103.882 94.0765 103.873 94.8039C103.864 95.5314 103.597 96.2321 103.121 96.7818L92.0694 109.477L138.244 82.8062C138.922 82.4205 139.72 82.3063 140.479 82.4867C141.238 82.6672 141.899 83.1287 142.331 83.7783C142.762 84.4278 142.931 85.2168 142.803 85.986C142.676 86.7552 142.261 87.4473 141.642 87.9224L118.524 105.469L161.498 80.6576C162.182 80.2815 162.985 80.1798 163.741 80.3732C164.498 80.5666 165.154 81.0406 165.574 81.699C165.994 82.3575 166.149 83.1512 166.006 83.9193C165.863 84.6874 165.433 85.3723 164.804 85.8353L135.868 106.189L180.983 80.1466C181.671 79.7583 182.482 79.6491 183.247 79.8417C184.013 80.0343 184.676 80.5138 185.098 81.1812C185.52 81.8486 185.67 82.6527 185.516 83.4273C185.362 84.2019 184.916 84.8876 184.271 85.3428L144.721 112.463L199.792 80.6699C200.478 80.2951 201.281 80.1956 202.038 80.3914C202.795 80.5872 203.449 81.0638 203.868 81.7243C204.286 82.3849 204.437 83.1799 204.291 83.9479C204.145 84.716 203.711 85.3996 203.079 85.8599L141.956 128.082L220.829 82.523C221.527 82.0993 222.365 81.9702 223.158 82.1642C223.951 82.3582 224.635 82.8593 225.058 83.5573C225.482 84.2554 225.611 85.0931 225.417 85.8864C225.223 86.6796 224.722 87.3632 224.024 87.7869L202.205 101.645L232.299 84.2654C232.998 83.8623 233.827 83.7498 234.608 83.952C235.389 84.1542 236.059 84.655 236.475 85.3465C236.89 86.038 237.018 86.8651 236.83 87.6496C236.642 88.4342 236.153 89.1136 235.469 89.5416L227.041 94.8116L241.94 86.1924C242.631 85.8051 243.444 85.699 244.211 85.8961C244.978 86.0931 245.64 86.5782 246.058 87.2505C246.477 87.9228 246.62 88.7305 246.459 89.5057C246.297 90.281 245.843 90.9642 245.191 91.4132L169.63 142.156L258.433 90.8714C259.132 90.4684 259.962 90.3559 260.743 90.5581C261.524 90.7603 262.194 91.261 262.61 91.9526C263.025 92.6441 263.153 93.4711 262.965 94.2557C262.777 95.0403 262.288 95.7196 261.604 96.1476L261.259 96.357L265.908 93.6788C266.603 93.2831 267.425 93.1735 268.199 93.3734C268.974 93.5732 269.641 94.0668 270.057 94.7495C270.474 95.4322 270.609 96.2505 270.433 97.0309C270.258 97.8113 269.785 98.4926 269.115 98.9304L232.028 122.75L274.989 97.9454C275.68 97.5447 276.5 97.4285 277.276 97.6215C278.051 97.8144 278.721 98.3014 279.144 98.9794C279.567 99.6574 279.71 100.473 279.542 101.255C279.374 102.036 278.909 102.721 278.245 103.166L219.185 142.889L283.399 105.832C284.089 105.445 284.903 105.339 285.67 105.536C286.437 105.733 287.098 106.218 287.517 106.89C287.936 107.562 288.079 108.37 287.917 109.145C287.756 109.921 287.302 110.604 286.649 111.053L241.866 140.986L285.042 116.07C285.731 115.688 286.539 115.583 287.302 115.779C288.065 115.974 288.724 116.454 289.144 117.121C289.563 117.787 289.711 118.589 289.558 119.361C289.404 120.134 288.96 120.818 288.318 121.273L250.793 146.884L285.067 127.097C285.759 126.72 286.569 126.624 287.33 126.826C288.091 127.028 288.745 127.515 289.159 128.185C289.572 128.856 289.713 129.659 289.552 130.43C289.391 131.201 288.94 131.881 288.293 132.33L285.72 134.017C286.423 133.801 287.18 133.844 287.854 134.138C288.528 134.433 289.075 134.958 289.395 135.621C289.715 136.283 289.787 137.038 289.598 137.749C289.41 138.46 288.973 139.08 288.367 139.496L275.537 148.306L285.104 142.766C285.786 142.377 286.591 142.265 287.354 142.45C288.116 142.636 288.779 143.106 289.207 143.764C289.635 144.422 289.795 145.218 289.655 145.991C289.515 146.763 289.085 147.453 288.453 147.919L274.108 158.348L285.122 151.994C285.774 151.623 286.539 151.502 287.273 151.655C288.007 151.807 288.661 152.222 289.11 152.823C289.56 153.423 289.775 154.166 289.715 154.914C289.656 155.662 289.325 156.362 288.786 156.883L269.953 174.823L285.159 166.044C285.801 165.673 286.555 165.546 287.283 165.687C288.011 165.828 288.664 166.226 289.121 166.81C289.579 167.393 289.81 168.122 289.774 168.862C289.737 169.602 289.434 170.305 288.921 170.84L283.14 176.855L285.184 175.673C285.708 175.371 286.309 175.231 286.913 175.269C287.516 175.307 288.095 175.522 288.577 175.887C289.059 176.253 289.423 176.751 289.623 177.322C289.823 177.893 289.851 178.51 289.703 179.096L287.985 185.782C288.504 186.014 288.948 186.384 289.269 186.853C289.59 187.321 289.775 187.869 289.803 188.437C289.832 189.004 289.703 189.568 289.431 190.066C289.159 190.565 288.755 190.978 288.262 191.261L285.184 193.034C284.665 193.328 284.071 193.465 283.475 193.428C282.879 193.391 282.307 193.181 281.829 192.825C281.348 192.459 280.985 191.96 280.786 191.39C280.586 190.819 280.56 190.203 280.708 189.617L281.939 184.692L267.41 193.084C266.767 193.455 266.012 193.581 265.284 193.44C264.556 193.298 263.903 192.898 263.446 192.314C262.989 191.73 262.758 191 262.796 190.259C262.835 189.518 263.139 188.816 263.654 188.281L269.429 182.273L250.676 193.096C250.025 193.467 249.26 193.588 248.526 193.436C247.791 193.283 247.138 192.868 246.688 192.268C246.239 191.667 246.023 190.924 246.083 190.176C246.143 189.429 246.474 188.729 247.013 188.208L265.846 170.261L226.265 193.114C225.583 193.502 224.778 193.615 224.015 193.43C223.253 193.244 222.59 192.774 222.162 192.116C221.734 191.458 221.574 190.661 221.714 189.889C221.854 189.117 222.284 188.427 222.916 187.961L237.279 177.532L210.252 193.127C209.565 193.505 208.759 193.607 207.999 193.411C207.239 193.216 206.583 192.737 206.164 192.074C205.745 191.411 205.595 190.612 205.745 189.842C205.895 189.072 206.333 188.388 206.97 187.93L219.739 179.163L195.519 193.145C194.827 193.532 194.011 193.637 193.244 193.438C192.476 193.239 191.814 192.751 191.397 192.076C190.98 191.401 190.84 190.591 191.006 189.815C191.172 189.04 191.631 188.358 192.287 187.912L193.715 186.976L183.009 193.133C182.321 193.516 181.512 193.62 180.749 193.425C179.986 193.229 179.327 192.749 178.908 192.083C178.488 191.416 178.34 190.614 178.493 189.842C178.647 189.07 179.091 188.386 179.733 187.93L217.289 162.307L163.856 193.151C163.165 193.539 162.351 193.645 161.584 193.448C160.817 193.251 160.156 192.765 159.737 192.093C159.319 191.421 159.175 190.613 159.337 189.838C159.498 189.063 159.953 188.38 160.605 187.93L205.339 158.022L144.462 193.17C143.77 193.602 142.934 193.742 142.139 193.559C141.343 193.375 140.653 192.883 140.22 192.191C139.788 191.499 139.648 190.663 139.831 189.867C140.015 189.072 140.507 188.382 141.199 187.949L200.303 148.214L122.372 193.17C121.677 193.566 120.855 193.675 120.08 193.475C119.306 193.275 118.639 192.782 118.222 192.099C117.805 191.416 117.671 190.598 117.846 189.818C118.022 189.037 118.495 188.356 119.165 187.918L156.234 164.123L105.891 193.188C105.192 193.591 104.363 193.704 103.582 193.502C102.801 193.299 102.13 192.799 101.715 192.107C101.299 191.416 101.172 190.589 101.36 189.804C101.548 189.019 102.036 188.34 102.72 187.912L103.04 187.715L93.5347 193.201C93.0656 193.473 92.532 193.616 91.9893 193.613Z" fill="#2D4060"/>
<path d="M336.556 190.171C335.999 190.172 335.451 190.021 334.973 189.735C334.494 189.45 334.102 189.039 333.839 188.548C333.575 188.057 333.45 187.504 333.476 186.947C333.503 186.39 333.68 185.851 333.989 185.387L338.335 178.843L321.589 188.509C320.942 188.868 320.188 188.982 319.464 188.831C318.74 188.68 318.094 188.273 317.646 187.684C317.197 187.096 316.976 186.366 317.021 185.627C317.067 184.889 317.377 184.192 317.895 183.663L329.236 172.397L319.293 178.135C318.665 178.498 317.929 178.629 317.215 178.502C316.5 178.376 315.853 178.002 315.388 177.445C314.923 176.889 314.669 176.186 314.671 175.46C314.674 174.735 314.933 174.034 315.402 173.48L325.098 162.029L319.293 165.378C318.77 165.678 318.17 165.818 317.568 165.78C316.966 165.742 316.389 165.528 315.907 165.165C315.426 164.801 315.062 164.305 314.86 163.736C314.659 163.168 314.629 162.553 314.774 161.967L316.498 155.109C315.979 154.878 315.534 154.508 315.213 154.039C314.891 153.571 314.706 153.023 314.676 152.456C314.647 151.889 314.775 151.325 315.047 150.826C315.318 150.327 315.722 149.913 316.214 149.63L319.293 147.856C319.817 147.554 320.418 147.412 321.022 147.449C321.625 147.487 322.205 147.701 322.688 148.065C323.17 148.43 323.535 148.929 323.736 149.499C323.937 150.07 323.966 150.687 323.818 151.273L322.525 156.408L337.307 147.875C337.935 147.511 338.671 147.381 339.385 147.507C340.1 147.633 340.746 148.008 341.212 148.564C341.677 149.121 341.931 149.824 341.928 150.549C341.926 151.275 341.667 151.976 341.198 152.529L331.507 163.968L346.597 155.263C347.244 154.903 347.998 154.789 348.723 154.94C349.447 155.092 350.092 155.499 350.541 156.087C350.989 156.676 351.211 157.406 351.165 158.144C351.119 158.883 350.809 159.58 350.291 160.108L338.963 171.375L346.597 166.96C347.198 166.613 347.899 166.479 348.585 166.58C349.272 166.681 349.904 167.011 350.379 167.517C350.855 168.022 351.145 168.673 351.204 169.365C351.263 170.056 351.087 170.747 350.704 171.326L346.357 177.876L346.597 177.741C347.301 177.373 348.119 177.291 348.882 177.512C349.644 177.733 350.292 178.24 350.689 178.928C351.087 179.615 351.203 180.43 351.014 181.201C350.825 181.972 350.346 182.64 349.676 183.066L338.095 189.74C337.63 190.019 337.098 190.168 336.556 190.171Z" fill="#EDB044"/>
<path d="M180.86 362.52C180.205 362.518 179.569 362.308 179.042 361.92C178.515 361.532 178.125 360.986 177.93 360.362C177.734 359.737 177.742 359.067 177.954 358.447C178.165 357.828 178.569 357.292 179.105 356.917L230.39 321.209L162.772 360.279C162.076 360.668 161.257 360.772 160.486 360.569C159.715 360.366 159.053 359.872 158.639 359.191C158.225 358.51 158.092 357.694 158.266 356.917C158.441 356.139 158.911 355.46 159.576 355.021L181.069 341.255L152.299 357.878C151.607 358.271 150.79 358.382 150.019 358.186C149.247 357.989 148.582 357.502 148.162 356.826C147.742 356.149 147.601 355.337 147.767 354.558C147.934 353.78 148.395 353.096 149.055 352.651L216.445 307.72L138.121 352.934C137.424 353.312 136.609 353.406 135.844 353.197C135.08 352.989 134.425 352.493 134.017 351.814C133.608 351.135 133.477 350.325 133.651 349.552C133.825 348.779 134.29 348.103 134.95 347.664L154.202 335.591L130.443 349.302C129.748 349.673 128.936 349.764 128.176 349.555C127.415 349.346 126.764 348.853 126.357 348.177C125.949 347.502 125.817 346.696 125.986 345.926C126.155 345.156 126.614 344.48 127.267 344.038L166.478 319.264L122.372 344.74C121.673 345.143 120.844 345.255 120.063 345.053C119.282 344.851 118.611 344.35 118.196 343.659C117.78 342.967 117.653 342.14 117.841 341.355C118.029 340.571 118.517 339.891 119.201 339.463L140.657 326.104L115.834 340.43C115.137 340.828 114.312 340.939 113.534 340.737C112.757 340.536 112.089 340.039 111.673 339.352C111.258 338.666 111.126 337.844 111.308 337.062C111.489 336.28 111.969 335.6 112.645 335.166L178.52 293.135L107.719 334.009C107.025 334.391 106.21 334.49 105.444 334.286C104.678 334.082 104.02 333.591 103.607 332.914C103.195 332.237 103.059 331.427 103.229 330.653C103.398 329.879 103.86 329.199 104.518 328.757L186.813 275.718L99.4202 326.202C98.7256 326.584 97.9105 326.683 97.1446 326.479C96.3786 326.276 95.7209 325.784 95.3083 325.107C94.8957 324.43 94.7601 323.62 94.9297 322.846C95.0993 322.072 95.561 321.393 96.2187 320.951L183.292 264.815L91.9029 317.577C91.21 317.958 90.3968 318.059 89.632 317.857C88.8672 317.655 88.2095 317.166 87.7953 316.492C87.3811 315.818 87.2423 315.011 87.4076 314.237C87.5729 313.463 88.0296 312.783 88.683 312.337L185.2 249.589L84.8167 307.56C84.1211 307.932 83.3095 308.022 82.5491 307.813C81.7887 307.604 81.1376 307.111 80.7301 306.436C80.3227 305.76 80.1899 304.955 80.3591 304.184C80.5284 303.414 80.9868 302.738 81.6399 302.296L147.399 260.776L80.2361 299.562C79.5421 299.95 78.725 300.054 77.9558 299.853C77.1867 299.652 76.5252 299.161 76.1098 298.483C75.6945 297.805 75.5575 296.993 75.7276 296.217C75.8977 295.44 76.3617 294.759 77.0224 294.317L172.53 232.326L75.1446 288.554C74.4462 288.933 73.6284 289.027 72.8623 288.817C72.0961 288.606 71.441 288.108 71.0338 287.426C70.6267 286.744 70.4991 285.93 70.6778 285.156C70.8565 284.382 71.3275 283.707 71.9924 283.272L76.6407 280.415L72.9467 282.552C72.247 282.973 71.4087 283.099 70.6161 282.902C69.8234 282.705 69.1415 282.202 68.7202 281.502C68.2989 280.802 68.1728 279.964 68.3697 279.171C68.5666 278.379 69.0702 277.697 69.7699 277.276L120.747 245.261L70.5025 274.265C69.8085 274.653 68.9914 274.757 68.2222 274.556C67.453 274.355 66.7915 273.864 66.3762 273.186C65.9609 272.508 65.8239 271.696 65.994 270.919C66.1641 270.142 66.6281 269.462 67.2888 269.019L153.999 212.73L68.1138 262.327C67.4199 262.699 66.61 262.79 65.8507 262.583C65.0914 262.376 64.4402 261.886 64.0311 261.213C63.622 260.541 63.486 259.737 63.651 258.968C63.8161 258.198 64.2696 257.521 64.9185 257.076L130.991 214.792L67.0425 251.732C66.3461 252.158 65.5089 252.29 64.7152 252.099C63.9214 251.908 63.236 251.409 62.8098 250.713C62.3837 250.016 62.2516 249.179 62.4427 248.385C62.6338 247.592 63.1324 246.906 63.8288 246.48L130.203 203.624L66.9933 240.09C66.3014 240.483 65.4839 240.593 64.7125 240.397C63.9411 240.201 63.2757 239.714 62.8559 239.037C62.4361 238.361 62.2946 237.548 62.461 236.77C62.6275 235.992 63.089 235.308 63.7487 234.863L137.807 185.794L68.4893 225.812C67.7913 226.236 66.9535 226.365 66.1603 226.171C65.3671 225.977 64.6834 225.476 64.2597 224.778C63.836 224.08 63.7069 223.242 63.9009 222.449C64.0949 221.656 64.596 220.972 65.294 220.548L90.0252 204.831L70.601 216.042C69.9102 216.451 69.0867 216.574 68.3063 216.385C67.5259 216.196 66.8503 215.709 66.4238 215.029C65.9972 214.348 65.8534 213.528 66.0231 212.743C66.1927 211.958 66.6624 211.271 67.3319 210.827L122.895 173.309L75.7849 200.502C75.0904 200.884 74.2753 200.984 73.5093 200.78C72.7434 200.576 72.0856 200.084 71.6731 199.408C71.2605 198.731 71.1249 197.921 71.2944 197.147C71.464 196.372 71.9258 195.693 72.5835 195.251L79.2696 190.941C78.7082 190.983 78.1459 190.875 77.6405 190.627C77.1351 190.379 76.705 190.001 76.3944 189.531C75.9675 188.864 75.8144 188.058 75.9669 187.28C76.1194 186.503 76.5658 185.814 77.2132 185.357L107.707 163.883L92.0445 172.927C91.3632 173.312 90.561 173.422 89.8009 173.237C89.0409 173.051 88.3801 172.583 87.9528 171.927C87.5256 171.272 87.3639 170.478 87.5007 169.708C87.6374 168.938 88.0624 168.248 88.6892 167.78L106.494 154.74C106.073 154.442 105.734 154.043 105.507 153.579C105.281 153.115 105.175 152.601 105.199 152.086C105.222 151.57 105.376 151.069 105.644 150.628C105.912 150.187 106.287 149.821 106.734 149.563L139.204 130.816C139.886 130.431 140.688 130.321 141.448 130.506C142.208 130.692 142.869 131.16 143.296 131.815C143.723 132.471 143.885 133.264 143.748 134.035C143.611 134.805 143.186 135.494 142.56 135.963L138.127 139.207L163.621 124.481C164.307 124.096 165.113 123.987 165.876 124.178C166.638 124.369 167.299 124.843 167.722 125.506C168.146 126.168 168.3 126.967 168.153 127.739C168.007 128.511 167.57 129.198 166.934 129.658L136.421 151.17L184.646 123.323C184.991 123.113 185.375 122.972 185.774 122.91C186.174 122.847 186.582 122.864 186.975 122.959C187.368 123.054 187.738 123.226 188.065 123.464C188.392 123.703 188.668 124.003 188.879 124.348C189.09 124.693 189.23 125.077 189.293 125.476C189.355 125.876 189.338 126.284 189.243 126.677C189.148 127.07 188.976 127.44 188.738 127.767C188.499 128.094 188.199 128.37 187.854 128.581L186.179 129.652L195.617 124.204C196.307 123.816 197.118 123.708 197.885 123.903C198.651 124.098 199.313 124.58 199.733 125.25C200.154 125.92 200.3 126.726 200.143 127.501C199.985 128.275 199.535 128.96 198.886 129.412L143.305 166.961L211.692 127.485C212.389 127.087 213.214 126.976 213.991 127.178C214.769 127.379 215.436 127.876 215.852 128.563C216.268 129.249 216.4 130.071 216.218 130.853C216.037 131.635 215.557 132.316 214.881 132.749L190.058 148.491L221.198 130.52C221.891 130.118 222.713 130.003 223.491 130.197C224.268 130.392 224.938 130.882 225.36 131.563C225.781 132.245 225.921 133.063 225.748 133.846C225.576 134.628 225.105 135.312 224.436 135.753L150.415 184.815L234.318 136.369C235.014 135.943 235.851 135.811 236.645 136.002C237.439 136.193 238.124 136.692 238.55 137.388C238.977 138.084 239.109 138.922 238.918 139.715C238.727 140.509 238.228 141.194 237.532 141.621L171.145 184.489L244.347 142.23C245.041 141.848 245.857 141.749 246.623 141.953C247.388 142.157 248.046 142.648 248.459 143.325C248.871 144.002 249.007 144.812 248.837 145.586C248.668 146.36 248.206 147.039 247.548 147.482L181.476 189.741L253.022 148.491C253.716 148.087 254.542 147.971 255.321 148.167C256.1 148.364 256.772 148.857 257.193 149.542C257.613 150.227 257.749 151.049 257.571 151.833C257.393 152.617 256.916 153.3 256.241 153.737L169.513 210.014L262.158 156.532C262.855 156.141 263.678 156.037 264.451 156.242C265.223 156.446 265.886 156.944 266.299 157.628C266.712 158.313 266.842 159.131 266.662 159.91C266.482 160.689 266.006 161.368 265.335 161.802L214.303 193.816L268.105 162.762C268.803 162.395 269.615 162.309 270.374 162.522C271.134 162.736 271.782 163.233 272.185 163.911C272.589 164.588 272.717 165.395 272.543 166.164C272.369 166.933 271.907 167.607 271.251 168.045L266.788 170.791L272.206 167.663C272.902 167.237 273.739 167.105 274.533 167.296C275.327 167.487 276.012 167.986 276.438 168.682C276.864 169.378 276.997 170.216 276.805 171.009C276.614 171.803 276.116 172.489 275.419 172.915L179.906 234.887L279.224 177.544C279.92 177.162 280.738 177.063 281.505 177.269C282.272 177.474 282.931 177.969 283.342 178.649C283.753 179.329 283.885 180.141 283.711 180.917C283.537 181.692 283.07 182.37 282.407 182.808L216.667 224.316L283.823 185.53C284.516 185.148 285.329 185.048 286.094 185.25C286.859 185.452 287.517 185.94 287.931 186.614C288.345 187.288 288.484 188.096 288.318 188.869C288.153 189.643 287.696 190.323 287.043 190.769L190.433 253.529L288.97 196.642C289.665 196.247 290.487 196.137 291.262 196.337C292.037 196.537 292.703 197.03 293.12 197.713C293.537 198.396 293.672 199.214 293.496 199.994C293.32 200.775 292.847 201.456 292.178 201.894L205.129 258.011L292.719 207.441C293.414 207.059 294.229 206.96 294.995 207.164C295.761 207.368 296.419 207.859 296.831 208.536C297.244 209.213 297.38 210.023 297.21 210.797C297.04 211.571 296.579 212.25 295.921 212.693L213.601 265.75L295.373 218.56C296.07 218.162 296.895 218.051 297.672 218.253C298.449 218.454 299.117 218.951 299.533 219.637C299.949 220.324 300.08 221.146 299.899 221.928C299.718 222.71 299.238 223.39 298.562 223.824L232.686 265.867L296.795 228.854C297.494 228.451 298.323 228.338 299.104 228.54C299.885 228.743 300.556 229.243 300.971 229.935C301.387 230.626 301.514 231.453 301.326 232.238C301.138 233.023 300.65 233.702 299.966 234.13L278.504 247.49L297.22 236.66C297.919 236.238 298.757 236.111 299.549 236.307C300.342 236.502 301.024 237.005 301.446 237.704C301.869 238.403 301.996 239.241 301.8 240.033C301.604 240.826 301.102 241.508 300.403 241.93L261.265 266.698L297.171 245.963C297.87 245.542 298.709 245.416 299.501 245.612C300.294 245.809 300.976 246.313 301.397 247.013C301.818 247.712 301.945 248.551 301.748 249.343C301.551 250.136 301.047 250.818 300.348 251.239L281.114 263.3L296.444 254.447C297.137 254.035 297.963 253.912 298.746 254.103C299.528 254.294 300.205 254.784 300.63 255.468C301.056 256.152 301.196 256.975 301.021 257.762C300.846 258.548 300.37 259.234 299.695 259.674L232.255 304.617L293.637 269.186C294.331 268.804 295.146 268.704 295.912 268.908C296.678 269.112 297.336 269.604 297.749 270.281C298.161 270.957 298.297 271.767 298.127 272.542C297.958 273.316 297.496 273.995 296.838 274.437L275.389 288.179L290.534 279.436C291.221 279.053 292.028 278.946 292.791 279.139C293.553 279.332 294.213 279.81 294.635 280.474C295.056 281.138 295.207 281.939 295.057 282.711C294.907 283.483 294.467 284.169 293.828 284.627L242.555 320.335L282.339 297.365C283.017 296.973 283.817 296.855 284.579 297.032C285.34 297.21 286.005 297.671 286.44 298.321C286.874 298.971 287.044 299.763 286.916 300.534C286.788 301.305 286.371 301.999 285.75 302.475L250.387 329.521L264.171 321.492C264.522 321.27 264.913 321.12 265.323 321.053C265.733 320.985 266.152 321.001 266.555 321.1C266.958 321.199 267.337 321.378 267.67 321.627C268.002 321.876 268.28 322.19 268.488 322.55C268.696 322.909 268.828 323.307 268.879 323.719C268.929 324.131 268.895 324.549 268.779 324.948C268.663 325.347 268.468 325.718 268.205 326.039C267.943 326.36 267.617 326.625 267.25 326.818L212.289 358.555C211.613 358.938 210.816 359.051 210.059 358.87C209.303 358.69 208.643 358.23 208.212 357.583C207.78 356.936 207.61 356.149 207.735 355.382C207.86 354.614 208.271 353.922 208.885 353.445L244.273 326.418L182.399 362.126C181.929 362.39 181.399 362.526 180.86 362.52Z" fill="#4681D6"/>
<path d="M217.639 319.177C217.054 319.176 216.482 319.01 215.988 318.696C215.495 318.382 215.101 317.934 214.853 317.404C214.605 316.874 214.513 316.285 214.588 315.705C214.662 315.125 214.901 314.578 215.275 314.128L219.788 308.698L211.341 313.574C210.691 313.96 209.921 314.093 209.179 313.947C208.437 313.802 207.774 313.388 207.317 312.785C206.861 312.182 206.642 311.433 206.703 310.679C206.764 309.925 207.1 309.22 207.647 308.698L215.355 301.249L208.583 305.17C207.928 305.531 207.164 305.641 206.434 305.479C205.704 305.317 205.058 304.896 204.616 304.292C204.174 303.689 203.967 302.946 204.033 302.201C204.099 301.456 204.434 300.761 204.975 300.245L220.878 285.783L206.397 294.138C205.728 294.514 204.942 294.626 204.195 294.452C203.447 294.279 202.791 293.832 202.355 293.2C201.92 292.568 201.736 291.796 201.84 291.036C201.945 290.275 202.329 289.581 202.919 289.089L223.925 272.005L204.255 283.358C203.571 283.739 202.767 283.845 202.007 283.654C201.248 283.463 200.589 282.99 200.166 282.331C199.743 281.671 199.587 280.876 199.731 280.106C199.874 279.336 200.305 278.649 200.936 278.186L204.914 275.366L202.894 276.53C202.221 276.916 201.427 277.033 200.671 276.858C199.915 276.683 199.253 276.23 198.817 275.588C198.381 274.946 198.204 274.163 198.321 273.396C198.437 272.629 198.84 271.934 199.447 271.451L226.868 249.773L199.077 265.817C198.397 266.204 197.596 266.317 196.835 266.134C196.075 265.951 195.413 265.485 194.983 264.832C194.554 264.178 194.389 263.385 194.523 262.615C194.657 261.844 195.079 261.153 195.703 260.683L216.463 245.291L190.095 260.504C189.418 260.901 188.616 261.025 187.851 260.85C187.086 260.675 186.417 260.215 185.98 259.564C185.544 258.912 185.372 258.119 185.5 257.345C185.629 256.571 186.048 255.876 186.672 255.4L219.055 230.411L173.016 256.989C172.337 257.381 171.533 257.499 170.77 257.318C170.007 257.138 169.341 256.673 168.909 256.019C168.476 255.364 168.31 254.569 168.445 253.796C168.579 253.024 169.003 252.331 169.63 251.86L205.732 224.771L162.747 249.582C162.069 249.963 161.272 250.073 160.516 249.89C159.76 249.707 159.101 249.244 158.673 248.595C158.244 247.947 158.076 247.16 158.204 246.392C158.332 245.625 158.745 244.935 159.361 244.46L192.194 219.729L156.418 240.427C155.744 240.816 154.948 240.934 154.19 240.759C153.432 240.585 152.768 240.129 152.332 239.485C151.896 238.841 151.721 238.056 151.84 237.287C151.959 236.518 152.366 235.824 152.976 235.342L181.266 213.135L153.253 229.309C152.59 229.685 151.81 229.801 151.065 229.635C150.32 229.469 149.664 229.033 149.223 228.41C148.782 227.787 148.588 227.023 148.679 226.265C148.769 225.507 149.138 224.811 149.713 224.309L170.227 206.701L154.386 215.826C153.733 216.315 152.912 216.526 152.104 216.41C151.296 216.295 150.567 215.863 150.077 215.21C149.587 214.557 149.376 213.736 149.492 212.928C149.607 212.119 150.039 211.39 150.692 210.9L160.118 201.93C159.705 201.834 159.317 201.654 158.976 201.402C158.635 201.15 158.349 200.831 158.136 200.465C157.729 199.758 157.62 198.92 157.831 198.133C158.042 197.345 158.557 196.674 159.262 196.266L176.846 186.108C177.498 185.731 178.266 185.606 179.004 185.757C179.742 185.908 180.399 186.325 180.851 186.928C181.302 187.531 181.517 188.279 181.454 189.03C181.391 189.781 181.054 190.483 180.509 191.002L173.626 197.565L195.79 184.778C196.453 184.401 197.233 184.285 197.978 184.451C198.723 184.617 199.379 185.054 199.82 185.677C200.261 186.299 200.455 187.064 200.364 187.821C200.274 188.579 199.905 189.276 199.33 189.777L178.816 207.385L215.546 186.175C216.22 185.795 217.012 185.682 217.766 185.859C218.519 186.036 219.178 186.491 219.611 187.132C220.044 187.774 220.22 188.555 220.104 189.32C219.987 190.085 219.586 190.778 218.982 191.261L190.661 213.498L232.785 189.174C233.464 188.771 234.273 188.646 235.042 188.823C235.812 189 236.484 189.466 236.92 190.125C237.355 190.783 237.521 191.584 237.383 192.362C237.245 193.139 236.813 193.834 236.177 194.302L203.344 219.027L247.111 193.785C247.79 193.393 248.594 193.275 249.357 193.455C250.121 193.635 250.786 194.1 251.219 194.755C251.651 195.41 251.817 196.204 251.683 196.977C251.549 197.75 251.125 198.443 250.497 198.913L214.401 226.002L255.841 202.053C256.516 201.675 257.309 201.565 258.062 201.745C258.814 201.925 259.471 202.382 259.902 203.025C260.333 203.668 260.506 204.449 260.387 205.214C260.267 205.979 259.864 206.67 259.258 207.151L226.868 232.153L260.046 213C260.726 212.613 261.528 212.5 262.288 212.683C263.048 212.866 263.711 213.332 264.14 213.985C264.57 214.639 264.734 215.432 264.6 216.202C264.467 216.973 264.045 217.664 263.42 218.134L242.648 233.526L260.403 223.281C261.077 222.896 261.871 222.778 262.627 222.953C263.383 223.128 264.045 223.581 264.481 224.223C264.916 224.865 265.094 225.648 264.977 226.415C264.86 227.182 264.458 227.877 263.851 228.36L236.442 250.075L259.418 236.814C260.104 236.418 260.915 236.302 261.684 236.489C262.453 236.677 263.121 237.153 263.548 237.819C263.975 238.486 264.129 239.291 263.978 240.068C263.827 240.845 263.382 241.533 262.737 241.991L255.638 247.009C256.157 247.014 256.667 247.137 257.131 247.368C257.595 247.6 258 247.934 258.316 248.345C258.752 248.985 258.93 249.765 258.816 250.531C258.702 251.296 258.304 251.991 257.7 252.476L236.713 269.548L242.604 266.15C243.26 265.789 244.023 265.68 244.754 265.841C245.484 266.003 246.13 266.425 246.572 267.028C247.014 267.631 247.221 268.374 247.155 269.119C247.088 269.864 246.753 270.559 246.212 271.075L230.322 285.512L233.973 283.407C234.623 283.021 235.393 282.888 236.135 283.034C236.877 283.179 237.54 283.593 237.997 284.196C238.453 284.799 238.672 285.548 238.611 286.302C238.55 287.056 238.214 287.761 237.667 288.283L229.959 295.726L231.615 294.778C232.24 294.417 232.973 294.287 233.684 294.412C234.395 294.536 235.04 294.906 235.506 295.458C235.971 296.01 236.229 296.708 236.232 297.43C236.235 298.152 235.985 298.852 235.524 299.408L230.95 304.912C231.685 304.555 232.531 304.505 233.303 304.772C234.075 305.039 234.709 305.602 235.066 306.337C235.422 307.072 235.473 307.918 235.205 308.69C234.938 309.462 234.375 310.096 233.64 310.453L219.179 318.795C218.709 319.057 218.177 319.189 217.639 319.177ZM126.755 348.581C126.194 348.58 125.644 348.426 125.164 348.136C124.684 347.845 124.293 347.429 124.032 346.932C123.772 346.435 123.652 345.876 123.686 345.316C123.72 344.756 123.906 344.216 124.225 343.754L127.857 338.484L119.854 343.114C119.23 343.472 118.5 343.6 117.791 343.475C117.083 343.351 116.44 342.983 115.975 342.434C115.509 341.885 115.251 341.191 115.244 340.472C115.238 339.752 115.483 339.053 115.938 338.496L124.711 327.827L110.274 336.163C109.646 336.526 108.909 336.656 108.195 336.529C107.48 336.402 106.833 336.027 106.368 335.469C105.904 334.912 105.651 334.208 105.655 333.482C105.659 332.756 105.919 332.055 106.389 331.502L117.97 317.878L100.91 327.728C100.263 328.088 99.5088 328.202 98.7847 328.051C98.0605 327.899 97.4151 327.492 96.9665 326.904C96.518 326.316 96.2963 325.585 96.3421 324.847C96.3879 324.109 96.6981 323.411 97.216 322.883L106.125 313.962L94.5193 320.667C93.8892 321.029 93.1511 321.157 92.4356 321.028C91.7201 320.899 91.0735 320.52 90.6104 319.96C90.1472 319.399 89.8974 318.693 89.9052 317.966C89.913 317.239 90.1779 316.538 90.653 315.988L101.119 303.89L87.6239 311.678C86.9828 312.044 86.2313 312.168 85.5066 312.026C84.7819 311.884 84.1323 311.487 83.6762 310.906C83.2202 310.326 82.988 309.6 83.0222 308.863C83.0563 308.125 83.3545 307.424 83.8622 306.888L89.748 300.732L83.1111 304.561C82.5573 304.88 81.918 305.018 81.282 304.957C80.6459 304.896 80.0447 304.638 79.5616 304.22C79.0784 303.802 78.7374 303.244 78.5858 302.623C78.4341 302.002 78.4794 301.35 78.7153 300.756L80.6177 295.997L78.9862 296.939C78.2796 297.341 77.4427 297.447 76.6582 297.234C75.8737 297.021 75.2053 296.506 74.7989 295.802C74.3924 295.098 74.2809 294.262 74.4887 293.476C74.6965 292.69 75.2066 292.018 75.9079 291.607L85.2352 286.22C85.789 285.902 86.4283 285.763 87.0643 285.824C87.7004 285.885 88.3016 286.143 88.7848 286.561C89.2679 286.979 89.6089 287.537 89.7605 288.158C89.9122 288.779 89.8669 289.431 89.631 290.025L87.7286 294.79L105.3 284.644C105.941 284.274 106.694 284.148 107.421 284.288C108.148 284.428 108.801 284.826 109.258 285.408C109.717 285.991 109.949 286.72 109.913 287.461C109.877 288.202 109.574 288.905 109.061 289.44L103.182 295.597L113.845 289.44C114.475 289.077 115.213 288.949 115.929 289.079C116.644 289.208 117.291 289.587 117.754 290.147C118.217 290.708 118.467 291.414 118.459 292.141C118.451 292.868 118.186 293.569 117.711 294.119L107.245 306.211L123.252 296.976C123.899 296.617 124.653 296.502 125.378 296.653C126.102 296.805 126.747 297.212 127.196 297.8C127.644 298.389 127.866 299.119 127.82 299.857C127.774 300.596 127.464 301.293 126.946 301.821L118.031 310.748L130.289 303.668C130.918 303.305 131.654 303.175 132.369 303.302C133.083 303.429 133.73 303.804 134.195 304.362C134.66 304.919 134.913 305.623 134.909 306.349C134.905 307.075 134.645 307.776 134.174 308.329L122.594 321.953L136.341 314.017C136.965 313.66 137.695 313.532 138.404 313.656C139.112 313.78 139.755 314.148 140.22 314.697C140.686 315.246 140.944 315.94 140.951 316.659C140.957 317.379 140.712 318.078 140.257 318.635L131.478 329.304L136.624 326.337C137.23 325.989 137.935 325.857 138.625 325.963C139.315 326.069 139.948 326.406 140.422 326.919C140.895 327.433 141.179 328.091 141.229 328.788C141.278 329.484 141.09 330.176 140.694 330.751L135.535 338.238C136.077 338.448 136.548 338.807 136.895 339.274C137.241 339.741 137.448 340.296 137.492 340.876C137.536 341.456 137.415 342.036 137.142 342.55C136.87 343.063 136.458 343.489 135.953 343.779L128.313 348.193C127.838 348.461 127.3 348.595 126.755 348.581ZM111.795 227.105C111.218 227.105 110.653 226.943 110.164 226.638C109.675 226.334 109.281 225.897 109.028 225.38C108.774 224.862 108.671 224.283 108.731 223.71C108.79 223.136 109.009 222.591 109.363 222.136L111.419 219.489L101.833 225.03C101.217 225.386 100.497 225.518 99.7946 225.403C99.0922 225.289 98.4513 224.934 97.981 224.4C97.5107 223.865 97.24 223.185 97.215 222.474C97.19 221.762 97.4123 221.064 97.8439 220.498L106.18 209.577L89.6618 219.107C88.9971 219.491 88.213 219.613 87.4632 219.448C86.7135 219.284 86.0521 218.846 85.6089 218.219C85.1657 217.592 84.9726 216.823 85.0675 216.061C85.1623 215.299 85.5383 214.601 86.1217 214.102L102.4 200.206L81.8798 212.045C81.1931 212.429 80.3856 212.535 79.623 212.342C78.8604 212.149 78.2007 211.672 77.7792 211.008C77.3577 210.344 77.2064 209.543 77.3564 208.771C77.5065 207.999 77.9465 207.313 78.586 206.855L97.0928 194.05L76.1234 206.154C75.432 206.554 74.6119 206.67 73.8364 206.477C73.061 206.284 72.3909 205.798 71.968 205.12C71.545 204.442 71.4023 203.626 71.57 202.844C71.7377 202.063 72.2026 201.377 72.8665 200.933L87.4639 191.082L77.3362 196.925C76.6529 197.302 75.8516 197.406 75.0945 197.215C74.3375 197.025 73.6812 196.553 73.2587 195.897C72.8361 195.24 72.6788 194.448 72.8186 193.679C72.9584 192.911 73.3849 192.225 74.0117 191.759L107.442 167.915L87.0637 179.68C86.3896 180.068 85.5936 180.187 84.8357 180.012C84.0777 179.837 83.4141 179.382 82.9781 178.738C82.5422 178.094 82.3663 177.308 82.4857 176.54C82.6052 175.771 83.0112 175.076 83.6221 174.595L108.089 155.325C107.429 155.283 106.799 155.031 106.294 154.604C105.789 154.178 105.434 153.6 105.283 152.956C105.132 152.313 105.192 151.637 105.454 151.03C105.717 150.424 106.168 149.917 106.74 149.587L139.235 130.827C139.908 130.442 140.702 130.324 141.458 130.499C142.214 130.674 142.876 131.127 143.312 131.769C143.748 132.411 143.925 133.194 143.808 133.961C143.692 134.729 143.29 135.423 142.683 135.907L121.005 152.985L159.927 130.532C160.612 130.13 161.426 130.008 162.199 130.192C162.972 130.376 163.643 130.852 164.073 131.52C164.503 132.188 164.659 132.996 164.507 133.776C164.355 134.555 163.907 135.246 163.258 135.703L129.846 159.511L161.86 141.041C162.552 140.64 163.372 140.524 164.147 140.717C164.923 140.91 165.593 141.397 166.016 142.075C166.439 142.753 166.581 143.569 166.414 144.35C166.246 145.132 165.781 145.817 165.117 146.262L150.514 156.113L159.022 151.187C159.708 150.813 160.512 150.713 161.269 150.909C162.026 151.105 162.68 151.581 163.098 152.242C163.517 152.902 163.668 153.697 163.521 154.465C163.375 155.233 162.942 155.917 162.31 156.377L131.096 177.993C131.571 178.204 131.985 178.532 132.299 178.947C132.613 179.361 132.818 179.848 132.893 180.363C132.968 180.877 132.911 181.402 132.728 181.889C132.545 182.376 132.242 182.808 131.847 183.146L115.563 197.06L116.412 196.574C117.028 196.217 117.749 196.085 118.451 196.2C119.154 196.315 119.794 196.67 120.265 197.204C120.735 197.738 121.006 198.419 121.031 199.13C121.056 199.841 120.833 200.539 120.402 201.105L112.066 212.033L121.947 206.326C122.565 205.971 123.286 205.841 123.989 205.958C124.692 206.076 125.332 206.434 125.801 206.97C126.269 207.507 126.537 208.19 126.558 208.902C126.58 209.614 126.353 210.312 125.918 210.876L122.538 215.235C122.952 215.325 123.343 215.502 123.684 215.754C124.026 216.005 124.311 216.325 124.521 216.694C124.929 217.4 125.041 218.24 124.831 219.028C124.621 219.817 124.106 220.489 123.4 220.899L113.346 226.698C112.875 226.971 112.339 227.112 111.795 227.105Z" fill="#41E879"/>
<path d="M242.094 190.011C147.283 158.225 107.88 246.301 191.425 263.33C204.97 279.467 193.426 330.85 228.513 317.133C243.252 307.769 234.799 286.233 245.936 273.421C265.077 249.934 282.845 201.161 242.094 190.011ZM257.541 234.955C253.164 256.41 232.669 271.279 229.455 293.442C231.086 306.593 221.217 323.881 212.032 304.998C206.14 287.483 211.157 255.862 185.928 254.791C149.739 253.431 145.158 196.094 181.735 190.879C213.183 188.201 266.376 190.405 257.541 234.93V234.955Z" fill="#262626"/>
<path d="M354.699 70.6024L228.494 17.36C210.726 12.0838 191.598 -6.18903 172.771 2.41792C117.419 25.809 62.0379 49.1631 6.62837 72.4802C-23.6499 97.039 58.818 110.263 72.9721 121.407C70.7865 148.274 78.2668 177.672 68.3054 202.779C46.7264 257.363 73.7293 325.788 127.6 349.491C223.785 399.895 344.423 289.156 291.052 189.776C291.532 166.873 291.052 143.718 291.23 120.736L313.031 111.556C313.548 135.875 312.052 160.68 313.56 184.734C318.572 193.618 351.368 193.655 352.778 181.169C350.845 170.875 358.257 153.421 346.671 148.065V97.396C362.087 94.4409 374.665 77.9596 354.699 70.6024ZM155.28 130.722C172.912 162.121 125.451 172.211 113.575 193.599C110.885 200.587 117.78 204.681 119.35 210.752C117.768 237.391 85.0267 211.127 77.177 200.384C83.551 183.298 93.9953 168.023 107.605 155.884C121.214 143.746 137.579 135.109 155.28 130.722ZM93.3443 312.182C88.8844 306.276 85.0139 299.948 81.7884 293.287C109.635 276.818 146.925 315.513 129.478 343.199C115.413 335.476 103.109 324.914 93.3443 312.182ZM220.423 351.744C193.017 361.253 162.961 359.529 136.822 346.948C159.423 312.077 114.271 268.839 79.6889 288.842C68.7325 263.734 66.82 235.604 74.2773 209.243C85.1129 225.066 126.208 237.471 128.388 209.366C127.415 202.052 117.423 195.896 124.466 188.434C140.701 171.86 179.728 157.706 164.484 128.924C296.814 109.334 345.92 305.871 220.423 351.744ZM220.792 129.355C195.608 121.801 168.696 122.285 143.8 130.739C118.904 139.194 97.2625 155.199 81.8869 176.527C81.776 157.318 82.207 138.972 81.5482 119.64C81.7458 119.328 81.8507 118.966 81.8507 118.596C81.8507 118.227 81.7458 117.865 81.5482 117.553C92.6794 72.7142 203.449 84.3071 240.235 90.673C295.485 96.922 280.869 133.443 282.279 174.951C267.442 153.32 245.8 137.271 220.792 129.355ZM337.657 101.152V147.209H322.044V107.733L337.657 101.152ZM326.631 184.5C316.62 181.163 324.304 162.336 322.02 153.477C351.731 149.974 343.943 161.074 342.909 184.5H326.631ZM350.168 89.1277L290.947 114.111C272.674 66.0466 96.3241 68.9586 73.754 113.662C53.905 101.829 22.2662 99.0891 8.17369 81.8444C59.7538 50.9567 124.552 32.3575 180.245 6.00107C232.268 25.4006 283.368 49.4606 335.059 70.3993C342.878 73.2129 367.129 81.2842 350.168 89.1277Z" fill="#262626"/>
</svg>
