<svg width="266" height="73" viewBox="0 0 266 73" fill="none" xmlns="http://www.w3.org/2000/svg">
<path d="M83.999 36.2441C83.999 56.1264 66.8813 72.2441 46.999 72.2441C26.999 71.7441 11.999 56.1264 11.999 36.2441C11.999 16.3619 28.1168 0.244141 47.999 0.244141C67.8813 0.244141 84.5 16 83.999 36.2441Z" fill="white"/>
<path fill-rule="evenodd" clip-rule="evenodd" d="M106.402 60V64.7001H104.902V52.3H108.302C109.702 52.3 110.802 52.6001 111.602 53.2001C112.469 53.8001 112.902 54.7668 112.902 56.1001C112.836 57.3668 112.369 58.3333 111.502 59C110.635 59.6667 109.502 60 108.102 60H106.402ZM111.402 56.1001C111.402 55.1668 111.135 54.5001 110.602 54.1001C110.135 53.7001 109.369 53.5 108.302 53.5H106.402V58.8H108.202C109.135 58.8 109.902 58.5668 110.502 58.1001C111.102 57.7001 111.402 57.0334 111.402 56.1001ZM115.202 64.7001V52.3H118.602C120.002 52.3 121.102 52.6001 121.902 53.2001C122.702 53.7334 123.102 54.6334 123.102 55.9C123.102 56.7 122.902 57.3667 122.502 57.9C122.169 58.4334 121.669 58.8334 121.002 59.1001L124.102 64.7001H122.502L119.702 59.5C119.235 59.5667 118.802 59.6001 118.402 59.6001H116.602V64.7001H115.202ZM121.702 55.9C121.702 55.0334 121.436 54.4 120.902 54C120.369 53.6667 119.602 53.5 118.602 53.5H116.702V58.4H118.502C119.435 58.4 120.202 58.2 120.802 57.8C121.402 57.4667 121.702 56.8334 121.702 55.9ZM125.102 58.5C125.102 57.3 125.369 56.2001 125.902 55.2001C126.369 54.2001 127.069 53.4334 128.002 52.9C128.869 52.3 129.869 52 131.002 52C132.069 52 133.069 52.2667 134.002 52.8C134.869 53.3334 135.535 54.1001 136.002 55.1001C136.535 56.0334 136.802 57.1334 136.802 58.4C136.802 59.6 136.535 60.7001 136.002 61.7001C135.535 62.7001 134.836 63.5001 133.902 64.1001C133.036 64.6334 132.036 64.9 130.902 64.9C129.769 64.9 128.769 64.6334 127.902 64.1001C127.036 63.5668 126.369 62.8 125.902 61.8C125.369 60.8667 125.102 59.7667 125.102 58.5ZM131.002 53.2001C130.135 53.2001 129.402 53.4334 128.802 53.9C128.136 54.3667 127.602 55 127.202 55.8C126.802 56.6 126.602 57.5 126.602 58.5C126.602 59.5 126.802 60.4001 127.202 61.2001C127.535 61.9334 128.035 62.5333 128.702 63C129.302 63.4667 130.036 63.7001 130.902 63.7001C131.702 63.7001 132.435 63.4667 133.102 63C133.769 62.5333 134.302 61.9001 134.702 61.1001C135.035 60.3001 135.202 59.4 135.202 58.4C135.202 57.4 135.035 56.5334 134.702 55.8C134.302 55 133.802 54.3667 133.202 53.9C132.535 53.4334 131.802 53.2001 131.002 53.2001ZM140.702 57.9H144.802L144.902 59H140.702V64.7001H139.202V52.3H145.802L145.902 53.4H140.702V57.9ZM153.002 61.9C153.002 63.4 151.702 64.7001 150.202 64.7001C148.702 64.7001 147.502 63.4 147.502 61.9C147.502 60.4 148.702 59.2001 150.202 59.2001C151.702 59.2001 153.002 60.4 153.002 61.9ZM130.602 24.8L123.702 34.6001L120.902 35L112.002 23.6001V46.2001H105.002V9.1001H109.502L122.002 26.2001L133.402 9.1001H137.802V46.2001H130.602V24.8ZM156.102 41.2001C157.369 41.2001 158.535 40.9334 159.602 40.4C160.669 39.8 161.869 39.0334 163.202 38.1001V19.7001H170.302V46.2001H165.702L164.502 43.4C162.835 44.5334 161.069 45.4334 159.202 46.1001C157.335 46.7668 155.669 47.1001 154.202 47.1001C150.869 47.1001 148.535 46.1667 147.202 44.3C145.869 42.3667 145.202 39.7 145.202 36.3V19.7001H152.302V36C152.302 37.6667 152.636 38.9334 153.302 39.8C153.969 40.7334 154.902 41.2001 156.102 41.2001ZM190.502 24.8C189.235 24.8 188.069 25.0668 187.002 25.6001C185.935 26.2001 184.736 26.9667 183.402 27.9V46.2001H176.302V19.7001H180.902L182.102 22.6001C183.769 21.4001 185.536 20.5 187.402 19.9C189.269 19.2334 190.936 18.9 192.402 18.9C195.736 18.9 198.069 19.8334 199.402 21.7001C200.736 23.6334 201.402 26.2668 201.402 29.6001V46.2001H194.302V30C194.302 28.3333 193.969 27.0334 193.302 26.1001C192.636 25.2334 191.702 24.8 190.502 24.8ZM231.902 46.2001H228.202L226.502 43.8C224.169 45.8667 221.636 46.9 218.902 46.9C214.769 46.9 211.502 45.6334 209.102 43.1001C206.769 40.6334 205.602 37.2667 205.602 33C205.602 30.2667 206.135 27.8334 207.202 25.7001C208.269 23.5667 209.836 21.9334 211.902 20.8C213.902 19.6 216.302 19 219.102 19C219.969 19 220.902 19.1667 221.902 19.5C222.902 19.8333 223.835 20.2667 224.702 20.8V8.30005L231.902 7.70007V46.2001ZM219.202 40.8C220.135 40.8 221.036 40.6001 221.902 40.2001C222.836 39.8667 223.769 39.3334 224.702 38.6001V27.3C223.769 26.5 222.869 25.9334 222.002 25.6001C221.135 25.2001 220.202 25 219.202 25C217.269 25 215.735 25.7667 214.602 27.3C213.469 28.7667 212.902 30.6667 212.902 33C212.902 35.3333 213.469 37.2001 214.602 38.6001C215.669 40.0668 217.202 40.8 219.202 40.8ZM250.902 46.8C248.102 46.8 245.635 46.2334 243.502 45.1001C241.369 43.9668 239.735 42.3667 238.602 40.3C237.402 38.2334 236.802 35.8 236.802 33C236.802 30.2 237.402 27.7334 238.602 25.6001C239.735 23.4668 241.369 21.8334 243.502 20.7001C245.635 19.5667 248.102 19 250.902 19C253.769 19 256.269 19.5667 258.402 20.7001C260.536 21.8334 262.169 23.4333 263.302 25.5C264.502 27.6333 265.102 30.1 265.102 32.9C265.102 35.7 264.502 38.1334 263.302 40.2001C262.169 42.3334 260.536 43.9668 258.402 45.1001C256.269 46.2334 253.769 46.8 250.902 46.8ZM257.802 32.9C257.802 30.5667 257.169 28.6667 255.902 27.2001C254.569 25.7334 252.902 25 250.902 25C248.969 25 247.369 25.7667 246.102 27.3C244.769 28.7667 244.102 30.6667 244.102 33C244.102 35.2667 244.735 37.1334 246.002 38.6001C247.269 40.0668 248.902 40.8 250.902 40.8C252.902 40.8 254.536 40.0333 255.802 38.5C257.136 37.0333 257.802 35.1667 257.802 32.9ZM86.602 31.2001C85.8687 31.9334 85.0688 32.6667 84.2021 33.4C84.2688 34.3334 84.3022 35.2667 84.3022 36.2001C84.3022 56.2001 68.102 72.5 48.102 72.5C39.702 72.5 31.9021 69.5001 25.7021 64.6001C32.7021 62.8001 40.5023 59.9001 48.4023 56.2001C53.1357 56.1334 57.6022 54.9334 61.8022 52.6001C63.7356 51.4668 64.7021 49.8001 64.7021 47.6001V47.5C64.7021 45.5667 64.7021 43.6334 64.7021 41.7001V39.6001C64.5021 39.6668 64.3355 39.7334 64.2021 39.8C59.8688 41.6 55.5689 43.4001 51.3022 45.2001C49.1689 46.1334 47.0357 46.1334 44.9023 45.2001C40.9023 43.4667 36.9023 41.7668 32.9023 40.1001C32.5023 39.9001 32.0687 39.7334 31.602 39.6001C31.602 39.7334 31.602 39.8334 31.602 39.9C31.602 42.6 31.602 45.2 31.602 47.8C31.702 49.8 32.6022 51.4 34.3022 52.4C35.9689 53.4 37.669 54.2 39.4023 54.8C33.0023 57.4 26.9023 59.4001 21.4023 60.6001C17.7023 56.5001 14.9022 51.6001 13.3022 46.2001C12.7689 44.4001 12.4021 42.5334 12.2021 40.6001C12.0021 39.1334 11.9023 37.6667 11.9023 36.2001C11.9023 16.3001 28.202 0 48.102 0C57.302 0 65.7019 3.5001 72.0019 9.1001C64.7019 10.9001 56.3021 14 47.7021 18C47.1021 18.0667 46.5023 18.2333 45.9023 18.5C38.569 21.5667 31.2357 24.6667 23.9023 27.8C22.6023 28.3 21.9022 29.4 21.8022 30.8C21.8022 31.5 22.0022 32.1001 22.3022 32.6001C22.7022 33.2001 23.3023 33.6 23.9023 33.9C24.969 34.3667 26.0688 34.8334 27.2021 35.3C33.4021 37.9667 39.6357 40.6001 45.9023 43.2001C46.6023 43.5001 47.402 43.6 48.102 43.8C48.902 43.6 49.7023 43.5001 50.4023 43.2001C57.7357 40.1334 65.0356 37.0334 72.3022 33.9C73.7022 33.4 74.4023 32.3 74.4023 30.9C74.4023 29.4 73.7022 28.3001 72.3022 27.7001C66.4356 25.2334 60.5688 22.7667 54.7021 20.3C62.2021 17.1 69.402 14.7 75.602 13.4C75.7354 13.3334 75.902 13.3 76.102 13.3C79.502 17.4 82.0022 22.2 83.3022 27.5C90.4022 20.6 91.9019 16.1 91.0019 14.3C90.4019 13.2 88.4023 12.3 84.4023 12.3C82.2023 12.3 79.502 12.6 76.102 13.3C74.8354 11.7667 73.4686 10.3668 72.0019 9.1001C72.8686 8.9001 73.7354 8.7 74.602 8.5C85.702 6.2 92.9023 7.4 95.4023 12C97.8023 16.6 94.802 23.3001 86.602 31.2001ZM12.2021 40.6001C12.4021 42.5334 12.7689 44.4001 13.3022 46.2001C13.2356 46.3334 13.1353 46.4333 13.0019 46.5C5.80194 53.5 4.30214 58.1 5.20214 59.8C6.10214 61.5 10.702 62.8 20.602 60.8C20.8687 60.7334 21.1357 60.6668 21.4023 60.6001C22.7357 62.0668 24.1688 63.4001 25.7021 64.6001C24.3021 65.0001 22.9354 65.3334 21.602 65.6001C17.9354 66.4001 14.7023 66.8 11.9023 66.8C6.20233 66.8 2.50223 65.2001 0.802233 62.1001C-1.59777 57.5001 1.40204 50.9 9.60204 43C10.402 42.2 11.2688 41.4001 12.2021 40.6001ZM68.8022 39C68.0689 39.4667 67.3354 39.9667 66.602 40.5V46.3V51.6001H68.8022V44.9V39Z" fill="#52CFDC"/>
<circle cx="150" cy="62" r="3" fill="white"/>
</svg>
