<svg width="395" height="108" viewBox="0 0 395 108" fill="none" xmlns="http://www.w3.org/2000/svg">
<path d="M165.877 83.3651C165.877 81.9376 165.488 80.9282 164.71 80.3393C163.932 79.7531 162.793 79.4587 161.292 79.4587H158.39V87.2978H161.077C162.504 87.2978 163.653 86.9771 164.521 86.3356C165.388 85.6916 165.84 84.7031 165.877 83.3651ZM158.39 89.1143V96.0859H156.25V77.6448H161.269C163.348 77.6448 165.002 78.0996 166.232 79.0144C167.462 79.9266 168.075 81.3514 168.075 83.2836C168.056 85.2 167.386 86.6537 166.066 87.6369C164.747 88.6227 163.056 89.1169 160.995 89.1169H158.39V89.1143Z" fill="#52CFDC"/>
<path d="M181.119 83.4522C181.119 82.0957 180.719 81.1519 179.925 80.6183C179.129 80.0846 178.001 79.8165 176.534 79.8165H173.632V87.1115H176.316C177.746 87.1115 178.898 86.8276 179.776 86.2571C180.651 85.6893 181.101 84.7534 181.119 83.4495V83.4522ZM171.492 96.4438V78H176.511C178.59 78 180.244 78.4338 181.474 79.3039C182.704 80.1714 183.317 81.5279 183.317 83.3707C183.301 84.5641 183.001 85.5631 182.423 86.3701C181.844 87.1746 181.058 87.7844 180.065 88.1998L184.757 96.4438H182.397L178.167 88.7676C177.515 88.8412 176.873 88.8754 176.24 88.8754H173.637V96.4438H171.495H171.492Z" fill="#52CFDC"/>
<path d="M194.952 79.0799C193.703 79.0799 192.588 79.419 191.602 80.0973C190.617 80.7755 189.844 81.7061 189.284 82.8891C188.721 84.0747 188.443 85.418 188.443 86.9164C188.443 88.3807 188.713 89.6951 189.255 90.8623C189.796 92.0295 190.543 92.9417 191.492 93.6015C192.441 94.2613 193.522 94.5899 194.733 94.5899C195.982 94.5899 197.097 94.2561 198.085 93.5883C199.068 92.918 199.841 91.9874 200.401 90.7939C200.964 89.6004 201.242 88.2545 201.242 86.7534C201.242 85.2892 200.972 83.9748 200.43 82.8076C199.889 81.6404 199.142 80.7282 198.193 80.0683C197.244 79.4085 196.163 79.0799 194.952 79.0799ZM186.192 86.9427C186.192 85.1183 186.566 83.4727 187.318 82.0058C188.069 80.5415 189.105 79.3849 190.425 78.5357C191.744 77.6866 193.235 77.2424 194.899 77.2056C196.545 77.2056 198.027 77.613 199.347 78.428C200.667 79.2403 201.697 80.3707 202.438 81.8165C203.18 83.265 203.55 84.9001 203.55 86.7271C203.55 88.5515 203.177 90.2024 202.425 91.6772C201.673 93.152 200.63 94.3139 199.292 95.163C197.954 96.0121 196.453 96.4432 194.791 96.4643C193.146 96.4643 191.673 96.0568 190.37 95.2419C189.068 94.4296 188.046 93.2992 187.304 91.8533C186.563 90.4048 186.192 88.7697 186.192 86.9427Z" fill="#52CFDC"/>
<path d="M209.352 85.9675H215.454L215.698 87.5685H209.352V96.0859H207.21V77.6421H216.918L217.192 79.243H209.352V85.9675Z" fill="#52CFDC"/>
<path d="M227.631 92.0112C227.631 94.2615 225.806 96.0859 223.556 96.0859C221.306 96.0859 219.481 94.2615 219.481 92.0112C219.481 89.7609 221.306 87.9365 223.556 87.9365C225.806 87.9365 227.631 89.7609 227.631 92.0112Z" fill="white"/>
<path d="M194.355 36.8114L184.037 51.354L179.973 51.9244L166.729 34.9423V68.6621H156.248V13.4097H162.912L181.6 38.9223L198.579 13.4097H204.999V68.6621H194.355V36.8114Z" fill="#7923F6"/>
<path d="M232.302 61.1856C234.142 61.1856 235.877 60.7677 237.502 59.9264C239.126 59.0878 240.914 57.9627 242.864 56.5537V29.2534H253.427V68.662H246.521L244.734 64.4375C242.297 66.1699 239.694 67.5237 236.934 68.499C234.171 69.4743 231.705 69.9606 229.539 69.9606C224.555 69.9606 221.061 68.5516 219.055 65.7361C217.052 62.9207 216.051 58.9932 216.051 53.9538V29.2534H226.613V53.4674C226.613 55.9043 227.113 57.7997 228.117 59.1562C229.118 60.51 230.514 61.1856 232.302 61.1856Z" fill="#7923F6"/>
<path d="M283.49 36.7271C281.647 36.7271 279.915 37.1477 278.29 37.9863C276.666 38.8276 274.878 39.9501 272.928 41.3591V68.6593H262.365V29.2508H269.271L271.058 33.4753C273.495 31.7429 276.095 30.3891 278.858 29.4138C281.621 28.4385 284.084 27.9521 286.253 27.9521C291.235 27.9521 294.731 29.3612 296.734 32.1767C298.737 34.9921 299.741 38.9196 299.741 43.959V68.6593H289.179V44.4453C289.179 42.0084 288.677 40.113 287.675 38.7566C286.671 37.4054 285.278 36.7271 283.49 36.7271Z" fill="#7923F6"/>
<path d="M326.148 60.6178C327.557 60.6178 328.924 60.347 330.252 59.8055C331.576 59.2639 332.972 58.4516 334.437 57.3659V40.5468C333.028 39.3586 331.674 38.5016 330.375 37.9889C329.076 37.4763 327.665 37.2161 326.151 37.2161C323.277 37.2161 321.003 38.3123 319.326 40.5073C317.646 42.6998 316.808 45.5336 316.808 48.9984C316.808 52.4658 317.633 55.2681 319.287 57.408C320.938 59.5479 323.227 60.6178 326.153 60.6178H326.148ZM345.081 68.662H339.555L337.118 65.0868C333.651 68.1204 329.857 69.6372 325.743 69.6372C319.621 69.6372 314.786 67.7813 311.24 64.072C307.691 60.3628 305.919 55.3365 305.919 48.9984C305.919 44.8817 306.716 41.2539 308.317 38.1099C309.912 34.9711 312.228 32.5342 315.265 30.7991C318.298 29.0667 321.9 28.1992 326.072 28.1992C327.37 28.1992 328.753 28.4279 330.215 28.888C331.676 29.348 333.085 29.9842 334.439 30.7991V12.1924L345.083 11.2986V68.6646L345.081 68.662Z" fill="#7923F6"/>
<path d="M383.593 48.8355C383.593 45.4233 382.644 42.6342 380.748 40.468C378.85 38.3019 376.413 37.2162 373.435 37.2162C370.509 37.2162 368.085 38.3282 366.164 40.5469C364.239 42.7709 363.28 45.5837 363.28 48.9985C363.28 52.4134 364.226 55.2025 366.124 57.3687C368.02 59.5348 370.457 60.6205 373.438 60.6205C376.364 60.6205 378.787 59.5112 380.709 57.2898C382.631 55.0685 383.595 52.253 383.595 48.8382L383.593 48.8355ZM373.435 69.6374C369.211 69.6374 365.514 68.7961 362.344 67.1163C359.176 65.4391 356.724 63.0417 354.991 59.9265C353.256 56.8114 352.391 53.1705 352.391 48.9959C352.391 44.8266 353.256 41.1699 354.991 38.0285C356.724 34.8871 359.176 32.4633 362.344 30.7546C365.514 29.0485 369.208 28.1941 373.435 28.1941C377.66 28.1941 381.358 29.0327 384.526 30.7125C387.696 32.3923 390.146 34.7898 391.879 37.9049C393.611 41.0201 394.481 44.661 394.481 48.8329C394.481 53.0075 393.614 56.6615 391.879 59.803C390.146 62.9444 387.694 65.3682 384.526 67.0743C381.356 68.7804 377.66 69.6347 373.435 69.6347V69.6374Z" fill="#7923F6" stroke="#7923F6" stroke-width="0.757099" stroke-miterlimit="22.9256"/>
<path d="M141.918 17.8523C138.285 10.9911 127.591 9.19566 110.993 12.6525C109.757 12.9102 108.498 13.1967 107.218 13.5069C109.373 15.4102 111.382 17.4817 113.211 19.7004C118.253 18.6883 122.341 18.273 125.58 18.273C131.481 18.273 134.555 19.6505 135.425 21.2935C136.786 23.8644 134.578 30.5364 123.924 40.8965C124.631 43.7225 125.112 46.6326 125.348 49.6084C126.566 48.5227 127.733 47.437 128.847 46.3592C141.032 34.569 145.551 24.7136 141.915 17.8523H141.918Z" fill="#5BC2D9"/>
<path d="M31.8653 90.1341C31.4578 90.2235 31.053 90.3102 30.6481 90.3943C15.9136 93.4648 9.08395 91.5352 7.71434 88.9485C6.34473 86.3644 8.58448 79.6293 19.3994 69.1614C19.5493 69.0194 19.7017 68.8749 19.8516 68.7303C19.0656 66.0068 18.4899 63.1966 18.1428 60.3154C16.7995 61.5063 15.5114 62.6971 14.289 63.8801C2.10445 75.6677 -2.41449 85.5258 1.22116 92.387C3.65282 96.9769 9.24168 99.3008 17.6486 99.3008C21.8048 99.3008 26.655 98.7303 32.1465 97.5894C34.1418 97.1714 36.1976 96.6851 38.3032 96.133C35.9978 94.3086 33.8448 92.3002 31.8653 90.1341Z" fill="#5BC2D9"/>
<path d="M102.396 76.7877C101.316 76.7877 100.238 76.7877 99.1576 76.7877V68.854C98.1955 69.4533 97.2228 70.0474 96.2396 70.6389V70.7625C96.2238 74.0695 94.778 76.5564 91.8942 78.1889C85.6849 81.7062 79.0656 83.4833 72.0677 83.5411C60.2091 89.1037 48.6397 93.4255 38.3005 96.1358C47.4882 103.41 59.0787 107.763 71.6365 107.763C101.271 107.763 125.519 83.5175 125.519 53.8802C125.519 52.4449 125.462 51.0201 125.348 49.6084C118.926 55.3497 111.124 61.1857 102.396 66.8035C102.396 70.1289 102.396 73.457 102.396 76.7851V76.7877Z" fill="#7923F6"/>
<path d="M32.5013 45.8071C32.567 43.6594 33.6212 42.1057 35.6007 41.2671C46.4998 36.6431 57.4041 32.0347 68.3084 27.4291C69.1891 27.0584 70.0697 26.8349 70.953 26.7587C83.7711 20.7335 96.258 16.1672 107.218 13.5069C97.7091 5.11305 85.2406 0 71.6365 0C42.0019 0 17.7537 24.2456 17.7537 53.8802C17.7537 56.0569 17.8877 58.2046 18.1427 60.3182C22.5828 56.3776 27.6669 52.3949 33.2505 48.4727C32.7432 47.692 32.4671 46.7771 32.4987 45.8097L32.5013 45.8071Z" fill="#7923F6"/>
<path d="M81.3685 30.1262C90.1093 33.8224 98.8501 37.5237 107.591 41.2251C109.636 42.0926 110.774 43.6489 110.764 45.865C110.753 48.0469 109.623 49.59 107.612 50.4391C96.7339 55.0474 85.8611 59.661 74.9673 64.2325C73.9263 64.6689 72.7643 64.8213 71.6182 65.1131C70.4641 64.8082 69.3075 64.6452 68.2638 64.2088C58.9736 60.3103 49.6965 56.3829 40.422 52.4528C32.462 57.8392 25.4667 63.365 19.8516 68.733C22.1781 76.7903 26.3447 84.0879 31.8652 90.1368C39.9699 88.3492 49.0787 85.3787 58.6187 81.446C56.0109 80.568 53.4899 79.4139 51.0582 77.9838C48.4794 76.4644 47.115 74.1274 47.0624 71.141C46.9941 67.2215 47.044 63.3019 47.044 59.3823C47.044 59.2351 47.0651 59.0879 47.0835 58.8487C47.7223 59.1089 48.3111 59.3403 48.8921 59.5847C54.8753 62.1163 60.8611 64.6452 66.839 67.1873C69.9936 68.528 73.1429 68.5753 76.308 67.2372C82.6934 64.5374 89.0788 61.8429 95.4642 59.1484C95.6929 59.0511 95.9268 58.9696 96.2423 58.8487V61.7719V62.0138C97.2255 61.396 98.1981 60.7756 99.1577 60.1552V57.4133L102.396 56.028V58.0153C110.701 52.4133 117.977 46.6615 123.74 41.0858C123.803 41.0253 123.863 40.9649 123.924 40.9044C121.955 33.0179 118.238 25.8071 113.211 19.7083C112.972 19.7556 112.733 19.8055 112.491 19.8555C103.209 21.7876 92.5383 25.3287 81.3711 30.1315L81.3685 30.1262Z" fill="#7923F6"/>
<path d="M96.2424 62.0112C96.2424 64.8871 96.2529 67.7604 96.2397 70.6389C97.2203 70.0474 98.1956 69.4533 99.1577 68.854V60.1526C98.1982 60.7756 97.2256 61.396 96.2424 62.0138V62.0112Z" fill="#7923F6"/>
<path d="M123.74 41.0806C117.977 46.6589 110.704 52.4081 102.396 58.0101V66.8061C111.124 61.1884 118.929 55.3524 125.349 49.6111C125.112 46.6352 124.628 43.7251 123.924 40.8992C123.861 40.9596 123.803 41.0201 123.74 41.0806Z" fill="#7923F6"/>
<path d="M75.0278 27.4396C77.1414 28.3334 79.255 29.2298 81.3712 30.1236C92.541 25.3207 103.211 21.7797 112.494 19.8475C112.736 19.7976 112.975 19.7476 113.214 19.7003C111.384 17.479 109.376 15.4101 107.22 13.5068C96.2582 16.1646 83.7739 20.7361 70.9558 26.7587C72.3149 26.6404 73.674 26.8691 75.0305 27.4422L75.0278 27.4396Z" fill="#5BC2D9"/>
<path d="M69.0288 83.4597C65.4299 83.2388 61.9547 82.5685 58.6187 81.4434C49.0787 85.3761 39.9699 88.3466 31.8652 90.1342C33.8447 92.303 35.9977 94.3114 38.3032 96.1332C48.6397 93.4229 60.2118 89.1037 72.0677 83.5412C71.0635 83.549 70.0488 83.5228 69.0288 83.4597Z" fill="#5BC2D9"/>
<path d="M40.4221 52.4502C38.8211 51.772 37.2202 51.0938 35.6192 50.4182C34.6124 49.9897 33.7975 49.3062 33.2533 48.4702C27.6697 52.395 22.5856 56.3751 18.1455 60.3157C18.4925 63.1968 19.0656 66.007 19.8516 68.7305C25.4668 63.3598 32.462 57.8367 40.4221 52.4502Z" fill="#7923F6"/>
<path d="M107.591 41.2252C98.8501 37.5238 90.1093 33.8251 81.3685 30.1263C79.255 29.2325 77.1414 28.3361 75.0252 27.4423C73.6714 26.8692 72.3123 26.6432 70.9532 26.7588C70.0725 26.8351 69.1892 27.0559 68.3086 27.4292C57.4042 32.0349 46.4973 36.6432 35.6009 41.2673C33.6187 42.1059 32.5672 43.6595 32.5015 45.8099C32.4699 46.7773 32.7433 47.6921 33.2533 48.4728C33.7975 49.3062 34.6098 49.9923 35.6193 50.4182C37.2202 51.0938 38.8212 51.772 40.4221 52.4502C49.6992 56.3803 58.9737 60.3078 68.2639 64.2037C69.3075 64.6401 70.4642 64.8057 71.6209 65.1106C72.7644 64.8162 73.9264 64.6663 74.9674 64.23C85.8612 59.6585 96.7366 55.0449 107.612 50.4339C109.623 49.5822 110.753 48.0417 110.764 45.8598C110.774 43.6411 109.636 42.0875 107.591 41.2199V41.2252Z" fill="#FEFEFE"/>
<path d="M96.2423 62.011V61.7692V58.8459C95.9269 58.9669 95.6929 59.0484 95.4642 59.1456C89.0788 61.8402 82.6934 64.5373 76.308 67.2345C73.1429 68.5726 69.991 68.5252 66.8364 67.1845C60.8585 64.6425 54.8727 62.1136 48.8921 59.582C48.3111 59.3375 47.7249 59.1036 47.0835 58.8459C47.0651 59.0878 47.0467 59.235 47.0467 59.3796C47.044 63.3018 46.9941 67.2213 47.0624 71.1383C47.115 74.1246 48.4794 76.4616 51.0582 77.9811C53.4899 79.4112 56.0109 80.5652 58.6187 81.4432C61.9521 82.5684 65.4274 83.2387 69.0262 83.4595C70.0488 83.5226 71.0609 83.5463 72.0677 83.5384C79.0656 83.4806 85.6876 81.7035 91.8943 78.1861C94.7781 76.5536 96.2213 74.0668 96.2397 70.7597V70.6362C96.2528 67.7603 96.2423 64.8843 96.2423 62.0084V62.011Z" fill="#FEFEFE"/>
<path d="M99.1577 76.7876C100.238 76.7876 101.319 76.7876 102.396 76.7902C102.396 73.4621 102.396 70.134 102.396 66.8086C101.329 67.4921 100.251 68.1756 99.1577 68.8564V76.7902V76.7876Z" fill="#5BC2D9"/>
<path d="M99.1577 57.408V60.1499C100.254 59.4375 101.332 58.7224 102.396 58.0074V56.02L99.1577 57.4054V57.408Z" fill="#5BC2D9"/>
<path d="M99.1577 68.8512C100.251 68.173 101.329 67.4895 102.396 66.8033V58.0073C101.332 58.7224 100.254 59.4374 99.1577 60.1498V68.8486V68.8512Z" fill="#5BC2D9"/>
</svg>
