<svg width="144" height="108" viewBox="0 0 144 108" fill="none" xmlns="http://www.w3.org/2000/svg">
<path d="M141.918 17.8523C138.285 10.9911 127.591 9.19566 110.993 12.6525C109.757 12.9102 108.498 13.1967 107.218 13.5069C109.373 15.4102 111.382 17.4817 113.211 19.7004C118.253 18.6883 122.341 18.273 125.58 18.273C131.481 18.273 134.555 19.6505 135.425 21.2935C136.786 23.8644 134.578 30.5364 123.924 40.8965C124.631 43.7225 125.112 46.6326 125.348 49.6084C126.566 48.5227 127.733 47.437 128.847 46.3592C141.032 34.569 145.551 24.7136 141.915 17.8523H141.918Z" fill="#5BC2D9"/>
<path d="M31.8653 90.1341C31.4578 90.2235 31.053 90.3102 30.6481 90.3943C15.9136 93.4648 9.08395 91.5352 7.71434 88.9485C6.34473 86.3644 8.58448 79.6293 19.3994 69.1614C19.5493 69.0194 19.7017 68.8749 19.8516 68.7303C19.0656 66.0068 18.4899 63.1966 18.1428 60.3154C16.7995 61.5063 15.5114 62.6971 14.289 63.8801C2.10445 75.6677 -2.41449 85.5258 1.22116 92.387C3.65282 96.9769 9.24168 99.3008 17.6486 99.3008C21.8048 99.3008 26.655 98.7303 32.1465 97.5894C34.1418 97.1714 36.1976 96.6851 38.3032 96.133C35.9978 94.3086 33.8448 92.3002 31.8653 90.1341Z" fill="#5BC2D9"/>
<path d="M102.396 76.7877C101.316 76.7877 100.238 76.7877 99.1576 76.7877V68.854C98.1955 69.4533 97.2228 70.0474 96.2396 70.6389V70.7625C96.2238 74.0695 94.778 76.5564 91.8942 78.1889C85.6849 81.7062 79.0656 83.4833 72.0677 83.5411C60.2091 89.1037 48.6397 93.4255 38.3005 96.1358C47.4882 103.41 59.0787 107.763 71.6365 107.763C101.271 107.763 125.519 83.5175 125.519 53.8802C125.519 52.4449 125.462 51.0201 125.348 49.6084C118.926 55.3497 111.124 61.1857 102.396 66.8035C102.396 70.1289 102.396 73.457 102.396 76.7851V76.7877Z" fill="#7923F6"/>
<path d="M32.5013 45.8071C32.567 43.6594 33.6212 42.1057 35.6007 41.2671C46.4998 36.6431 57.4041 32.0347 68.3084 27.4291C69.1891 27.0584 70.0697 26.8349 70.953 26.7587C83.7711 20.7335 96.258 16.1672 107.218 13.5069C97.7091 5.11305 85.2406 0 71.6365 0C42.0019 0 17.7537 24.2456 17.7537 53.8802C17.7537 56.0569 17.8877 58.2046 18.1427 60.3182C22.5828 56.3776 27.6669 52.3949 33.2505 48.4727C32.7432 47.692 32.4671 46.7771 32.4987 45.8097L32.5013 45.8071Z" fill="#7923F6"/>
<path d="M81.3685 30.1262C90.1093 33.8224 98.8501 37.5237 107.591 41.2251C109.636 42.0926 110.774 43.6489 110.764 45.865C110.753 48.0469 109.623 49.59 107.612 50.4391C96.7339 55.0474 85.8611 59.661 74.9673 64.2325C73.9263 64.6689 72.7643 64.8213 71.6182 65.1131C70.4641 64.8082 69.3075 64.6452 68.2638 64.2088C58.9736 60.3103 49.6965 56.3829 40.422 52.4528C32.462 57.8392 25.4667 63.365 19.8516 68.733C22.1781 76.7903 26.3447 84.0879 31.8652 90.1368C39.9699 88.3492 49.0787 85.3787 58.6187 81.446C56.0109 80.568 53.4899 79.4139 51.0582 77.9838C48.4794 76.4644 47.115 74.1274 47.0624 71.141C46.9941 67.2215 47.044 63.3019 47.044 59.3823C47.044 59.2351 47.0651 59.0879 47.0835 58.8487C47.7223 59.1089 48.3111 59.3403 48.8921 59.5847C54.8753 62.1163 60.8611 64.6452 66.839 67.1873C69.9936 68.528 73.1429 68.5753 76.308 67.2372C82.6934 64.5374 89.0788 61.8429 95.4642 59.1484C95.6929 59.0511 95.9268 58.9696 96.2423 58.8487V61.7719V62.0138C97.2255 61.396 98.1981 60.7756 99.1577 60.1552V57.4133L102.396 56.028V58.0153C110.701 52.4133 117.977 46.6615 123.74 41.0858C123.803 41.0253 123.863 40.9649 123.924 40.9044C121.955 33.0179 118.238 25.8071 113.211 19.7083C112.972 19.7556 112.733 19.8055 112.491 19.8555C103.209 21.7876 92.5383 25.3287 81.3711 30.1315L81.3685 30.1262Z" fill="#7923F6"/>
<path d="M96.2424 62.0112C96.2424 64.8871 96.2529 67.7604 96.2397 70.6389C97.2203 70.0474 98.1956 69.4533 99.1577 68.854V60.1526C98.1982 60.7756 97.2256 61.396 96.2424 62.0138V62.0112Z" fill="#7923F6"/>
<path d="M123.74 41.0806C117.977 46.6589 110.704 52.4081 102.396 58.0101V66.8061C111.124 61.1884 118.929 55.3524 125.349 49.6111C125.112 46.6352 124.628 43.7251 123.924 40.8992C123.861 40.9596 123.803 41.0201 123.74 41.0806Z" fill="#7923F6"/>
<path d="M75.0278 27.4396C77.1414 28.3334 79.255 29.2298 81.3712 30.1236C92.541 25.3207 103.211 21.7797 112.494 19.8475C112.736 19.7976 112.975 19.7476 113.214 19.7003C111.384 17.479 109.376 15.4101 107.22 13.5068C96.2582 16.1646 83.7739 20.7361 70.9558 26.7587C72.3149 26.6404 73.674 26.8691 75.0305 27.4422L75.0278 27.4396Z" fill="#5BC2D9"/>
<path d="M69.0288 83.4597C65.4299 83.2388 61.9547 82.5685 58.6187 81.4434C49.0787 85.3761 39.9699 88.3466 31.8652 90.1342C33.8447 92.303 35.9977 94.3114 38.3032 96.1332C48.6397 93.4229 60.2118 89.1037 72.0677 83.5412C71.0635 83.549 70.0488 83.5228 69.0288 83.4597Z" fill="#5BC2D9"/>
<path d="M40.4221 52.4502C38.8211 51.772 37.2202 51.0938 35.6192 50.4182C34.6124 49.9897 33.7975 49.3062 33.2533 48.4702C27.6697 52.395 22.5856 56.3751 18.1455 60.3157C18.4925 63.1968 19.0656 66.007 19.8516 68.7305C25.4668 63.3598 32.462 57.8367 40.4221 52.4502Z" fill="#7923F6"/>
<path d="M107.591 41.2252C98.8501 37.5238 90.1093 33.8251 81.3685 30.1263C79.255 29.2325 77.1414 28.3361 75.0252 27.4423C73.6714 26.8692 72.3123 26.6432 70.9532 26.7588C70.0725 26.8351 69.1892 27.0559 68.3086 27.4292C57.4042 32.0349 46.4973 36.6432 35.6009 41.2673C33.6187 42.1059 32.5672 43.6595 32.5015 45.8099C32.4699 46.7773 32.7433 47.6921 33.2533 48.4728C33.7975 49.3062 34.6098 49.9923 35.6193 50.4182C37.2202 51.0938 38.8212 51.772 40.4221 52.4502C49.6992 56.3803 58.9737 60.3078 68.2639 64.2037C69.3075 64.6401 70.4642 64.8057 71.6209 65.1106C72.7644 64.8162 73.9264 64.6663 74.9674 64.23C85.8612 59.6585 96.7366 55.0449 107.612 50.4339C109.623 49.5822 110.753 48.0417 110.764 45.8598C110.774 43.6411 109.636 42.0875 107.591 41.2199V41.2252Z" fill="#FEFEFE"/>
<path d="M96.2423 62.011V61.7692V58.8459C95.9269 58.9669 95.6929 59.0484 95.4642 59.1456C89.0788 61.8402 82.6934 64.5373 76.308 67.2345C73.1429 68.5726 69.991 68.5252 66.8364 67.1845C60.8585 64.6425 54.8727 62.1136 48.8921 59.582C48.3111 59.3375 47.7249 59.1036 47.0835 58.8459C47.0651 59.0878 47.0467 59.235 47.0467 59.3796C47.044 63.3018 46.9941 67.2213 47.0624 71.1383C47.115 74.1246 48.4794 76.4616 51.0582 77.9811C53.4899 79.4112 56.0109 80.5652 58.6187 81.4432C61.9521 82.5684 65.4274 83.2387 69.0262 83.4595C70.0488 83.5226 71.0609 83.5463 72.0677 83.5384C79.0656 83.4806 85.6876 81.7035 91.8943 78.1861C94.7781 76.5536 96.2213 74.0668 96.2397 70.7597V70.6362C96.2528 67.7603 96.2423 64.8843 96.2423 62.0084V62.011Z" fill="#FEFEFE"/>
<path d="M99.1577 76.7876C100.238 76.7876 101.319 76.7876 102.396 76.7902C102.396 73.4621 102.396 70.134 102.396 66.8086C101.329 67.4921 100.251 68.1756 99.1577 68.8564V76.7902V76.7876Z" fill="#5BC2D9"/>
<path d="M99.1577 57.408V60.1499C100.254 59.4375 101.332 58.7224 102.396 58.0074V56.02L99.1577 57.4054V57.408Z" fill="#5BC2D9"/>
<path d="M99.1577 68.8512C100.251 68.173 101.329 67.4895 102.396 66.8033V58.0073C101.332 58.7224 100.254 59.4374 99.1577 60.1498V68.8486V68.8512Z" fill="#5BC2D9"/>
</svg>
